<?xml version="1.0" standalone="no"?>
<!DOCTYPE svg PUBLIC "-//W3C//DTD SVG 20010904//EN"
 "http://www.w3.org/TR/2001/REC-SVG-20010904/DTD/svg10.dtd">
<svg version="1.0" xmlns="http://www.w3.org/2000/svg"
 width="600.000000pt" height="370.000000pt" viewBox="0 0 600.000000 370.000000"
 preserveAspectRatio="xMidYMid meet">

<g transform="translate(0.000000,370.000000) scale(0.100000,-0.100000)"
fill="#000000" stroke="none">
<path d="M0 1850 l0 -1850 444 0 444 0 -44 168 c-25 92 -56 219 -70 283 l-26
115 -48 17 c-26 9 -64 30 -85 47 -46 36 -36 40 12 4 44 -34 100 -57 108 -44 3
6 3 14 0 20 -3 5 -3 10 2 10 4 0 18 -39 29 -88 28 -114 75 -291 111 -422 l30
-105 2080 -3 2080 -2 18 82 c10 46 22 85 26 88 5 4 40 133 53 200 2 8 6 22 10
30 3 8 20 73 36 145 17 72 33 139 36 150 3 11 7 28 7 38 1 9 5 17 10 17 8 0 2
-55 -11 -105 -2 -11 -5 -32 -5 -48 0 -15 -3 -27 -8 -27 -4 0 -17 -44 -29 -98
-13 -53 -42 -169 -65 -257 -23 -88 -45 -172 -49 -188 l-6 -27 455 0 455 0 0
1850 0 1850 -276 0 c-235 0 -275 -2 -271 -14 3 -8 9 -66 12 -128 3 -62 8 -123
11 -135 2 -13 0 -23 -4 -23 -5 0 -12 48 -16 108 -3 59 -9 126 -12 149 l-7 43
-2718 0 -2719 0 0 -1850z m3123 1810 c-7 -28 -13 -25 -13 6 0 14 4 23 9 20 5
-3 7 -15 4 -26z m-2584 8 c0 -7 -4 -22 -9 -33 -7 -17 -9 -15 -9 13 -1 17 4 32
9 32 6 0 10 -6 9 -12z m2656 -198 l-14 -85 5 85 c3 47 8 89 12 94 12 20 11
-11 -3 -94z m2243 72 c2 -6 -19 -22 -47 -36 -57 -29 -61 -30 -61 -15 0 5 5 7
10 4 6 -3 10 2 10 11 0 10 3 15 6 11 3 -3 18 5 32 19 27 25 43 27 50 6z
m-4921 -54 c-3 -7 -5 -2 -5 12 0 14 2 19 5 13 2 -7 2 -19 0 -25z m4803 -13 c0
-8 -2 -15 -4 -15 -2 0 -6 7 -10 15 -3 8 -1 15 4 15 6 0 10 -7 10 -15z m-4804
-63 c-12 -11 -18 7 -10 30 l8 23 4 -23 c2 -13 1 -26 -2 -30z m2773 41 c0 -5
-4 -17 -9 -28 -8 -18 -9 -17 -9 8 -1 15 4 27 9 27 6 0 10 -3 9 -7z m1966 -13
c3 -5 1 -10 -4 -10 -6 0 -11 5 -11 10 0 6 2 10 4 10 3 0 8 -4 11 -10z m222
-247 c-6 -190 -35 -567 -57 -742 -6 -46 -9 -85 -7 -87 2 -3 40 28 83 67 83 75
166 129 198 129 11 0 -8 -13 -41 -30 -59 -30 -221 -172 -216 -191 2 -5 -1 -9
-7 -9 -16 0 -24 -69 -9 -87 8 -9 9 -14 2 -10 -8 5 -11 -9 -11 -48 1 -34 5 -52
11 -48 6 4 8 0 4 -10 -3 -9 0 -23 7 -30 10 -9 12 -26 7 -53 -9 -58 1 -129 19
-129 9 0 15 -10 15 -25 0 -24 4 -25 80 -33 110 -12 125 -15 125 -32 0 -27 -44
-35 -120 -20 -19 4 -44 8 -55 9 -11 0 -23 5 -26 10 -4 5 -17 -19 -29 -53 -21
-55 -24 -60 -37 -44 -13 17 -14 16 -8 -4 4 -14 2 -23 -5 -23 -6 0 -8 -5 -4
-11 4 -8 9 -7 16 2 8 11 9 11 5 -1 -17 -49 -51 -120 -58 -120 -5 0 -8 39 -7
88 l2 87 -30 6 -29 7 32 1 32 1 1 118 c0 64 3 153 6 197 3 44 6 107 8 140 1
33 5 65 8 71 4 5 3 16 -2 24 -5 8 -5 19 0 25 15 18 0 53 -26 59 -13 4 -24 11
-24 16 0 13 16 13 40 0 15 -8 17 -6 13 10 -3 11 -9 23 -14 26 -5 3 -9 10 -9
16 0 6 6 6 15 -2 26 -22 30 -1 6 31 -24 32 -22 50 4 29 25 -21 18 8 -9 35 -26
25 -24 35 6 35 15 0 17 3 8 19 -16 30 -13 46 5 31 21 -17 19 -3 -6 37 -26 41
-21 51 10 21 l23 -21 -7 24 c-4 13 -14 28 -21 32 -19 11 -18 37 2 37 12 0 14
7 8 32 -6 29 -5 31 10 19 13 -11 16 -11 16 0 0 8 -7 23 -15 33 -21 27 -20 53
0 36 13 -10 15 -9 15 10 0 13 -8 24 -19 27 -12 3 -17 11 -14 19 3 10 13 12 26
8 16 -5 19 -3 14 10 -4 9 -10 23 -13 31 -5 11 -2 14 11 8 15 -5 17 -2 13 14
-3 11 -2 45 3 74 5 30 9 109 10 177 1 77 5 122 12 122 7 0 8 -63 4 -197z
m-4962 22 c5 -119 10 -151 22 -160 11 -9 13 -14 5 -19 -7 -4 -12 -14 -12 -23
0 -13 3 -13 15 -3 12 10 15 10 15 -3 0 -8 -6 -17 -13 -20 -14 -5 -16 -41 -4
-53 3 -3 3 -19 0 -35 -4 -19 -1 -29 7 -29 8 0 10 -8 6 -25 -5 -19 -3 -23 9
-19 20 8 19 -7 -2 -45 -18 -30 -10 -57 8 -31 9 12 9 11 4 -5 -18 -52 -19 -59
-2 -52 19 7 24 -17 7 -28 -18 -11 -10 -26 10 -20 11 3 20 2 20 -3 0 -5 -9 -17
-20 -27 -24 -22 -29 -65 -5 -45 19 16 19 1 0 -24 -21 -27 -19 -39 5 -33 24 6
26 -5 5 -23 -22 -18 -18 -32 7 -28 11 2 23 -3 25 -9 3 -8 -4 -13 -15 -13 -21
0 -38 -38 -22 -54 4 -4 6 -15 3 -23 -3 -8 0 -19 8 -24 11 -6 11 -11 1 -21 -17
-17 -15 -41 3 -34 18 7 20 -5 3 -22 -11 -11 -12 -57 -3 -127 2 -16 6 -154 10
-305 3 -151 8 -310 10 -353 2 -47 0 -75 -6 -72 -5 4 -9 22 -9 41 0 36 -8 42
-29 22 -7 -7 -3 6 9 30 24 46 23 73 -4 134 -15 35 -15 37 1 31 15 -6 16 -4 6
8 -7 9 -8 20 -3 28 10 18 5 290 -7 302 -4 4 -9 -22 -10 -59 -3 -138 -2 -129
-15 -107 -15 25 -19 213 -6 239 7 13 6 21 -3 27 -11 8 -10 11 4 20 16 9 18 23
16 92 -2 97 -7 117 -25 117 -7 0 -11 6 -8 13 9 25 -195 197 -233 197 -7 0 -13
5 -13 10 0 6 3 10 8 10 21 0 117 -67 185 -130 44 -39 81 -70 83 -67 2 2 -5 77
-16 168 -27 233 -50 562 -50 713 0 71 2 127 4 125 3 -2 8 -72 11 -154z m2834
118 c-7 -10 -15 -20 -16 -22 -2 -2 -3 5 -3 17 0 14 6 22 16 22 14 0 15 -3 3
-17z m2001 -47 c0 -12 -44 -30 -65 -27 -9 2 -5 16 5 16 5 0 15 6 22 13 16 16
38 15 38 -2z m-2110 -46 c0 -16 -4 -30 -8 -30 -5 0 -7 14 -4 30 2 17 6 30 8
30 2 0 4 -13 4 -30z m2020 1 c0 -4 -6 -8 -14 -8 -8 0 -12 6 -9 14 5 13 23 9
23 -6z m-1860 -8 c-1 -5 -10 -24 -21 -43 -11 -19 -17 -26 -13 -15 3 11 9 30
11 43 5 20 24 33 23 15z m-90 -13 c0 -5 -5 -10 -11 -10 -5 0 -7 5 -4 10 3 6 8
10 11 10 2 0 4 -4 4 -10z m40 -107 c-11 -17 -11 -17 -6 0 3 10 6 24 7 30 0 9
2 9 5 0 3 -7 0 -20 -6 -30z m90 22 c0 -9 -40 -85 -45 -85 -2 0 3 20 12 45 8
25 19 45 24 45 5 0 9 -2 9 -5z m2010 -5 c0 -5 -7 -10 -15 -10 -8 0 -15 5 -15
10 0 6 7 10 15 10 8 0 15 -4 15 -10z m-200 -75 c0 -8 -9 -15 -20 -15 -22 0
-27 15 -7 23 21 9 27 7 27 -8z m190 5 c0 -5 -2 -10 -4 -10 -3 0 -8 5 -11 10
-3 6 -1 10 4 10 6 0 11 -4 11 -10z m-240 -23 c0 -7 -9 -13 -21 -13 -19 0 -19
1 -3 13 10 7 19 13 21 13 2 0 3 -6 3 -13z m-2013 -19 c-3 -8 -6 -5 -6 6 -1 11
2 17 5 13 3 -3 4 -12 1 -19z m247 -45 c-38 -73 -67 -111 -39 -53 41 85 60 120
68 120 4 0 -9 -30 -29 -67z m201 47 c3 -5 1 -10 -4 -10 -6 0 -11 5 -11 10 0 6
2 10 4 10 3 0 8 -4 11 -10z m-445 -24 c0 -3 -4 -8 -10 -11 -5 -3 -10 -1 -10 4
0 6 5 11 10 11 6 0 10 -2 10 -4z m47 -28 c-3 -7 -5 -2 -5 12 0 14 2 19 5 13 2
-7 2 -19 0 -25z m60 10 c-3 -8 -6 -5 -6 6 -1 11 2 17 5 13 3 -3 4 -12 1 -19z
m173 -68 c-30 -43 -37 -30 -8 14 13 19 24 31 26 26 2 -5 -6 -24 -18 -40z m175
10 c3 -5 -3 -10 -15 -10 -12 0 -18 5 -15 10 3 6 10 10 15 10 5 0 12 -4 15 -10z
m-219 -77 c-16 -30 -63 -89 -50 -63 17 32 55 90 59 90 3 0 -1 -12 -9 -27z m35
-44 c-23 -29 -41 -56 -41 -60 0 -5 -5 -9 -11 -9 -7 0 -5 9 5 23 8 12 30 44 48
70 18 27 34 44 36 38 2 -6 -15 -34 -37 -62z m-101 41 c-6 -11 -13 -20 -16 -20
-2 0 0 9 6 20 6 11 13 20 16 20 2 0 0 -9 -6 -20z m1785 10 c3 -5 2 -10 -4 -10
-5 0 -18 -3 -28 -7 -16 -6 -16 -5 -4 10 15 19 27 22 36 7z m-60 -20 c-3 -5
-16 -10 -28 -9 -21 0 -21 1 -2 9 28 12 37 12 30 0z m-1906 -54 c-9 -8 -10 -7
-5 7 3 10 7 26 7 35 1 9 4 6 6 -7 3 -13 -1 -28 -8 -35z m466 44 c3 -5 -1 -10
-9 -10 -9 0 -16 5 -16 10 0 6 4 10 9 10 6 0 13 -4 16 -10z m-413 -32 c-8 -8
-9 -4 -5 13 4 13 8 18 11 10 2 -7 -1 -18 -6 -23z m-732 18 c0 -11 -19 -15 -25
-6 -3 5 1 10 9 10 9 0 16 -2 16 -4z m70 -10 c0 -3 -4 -8 -10 -11 -5 -3 -10 -1
-10 4 0 6 5 11 10 11 6 0 10 -2 10 -4z m58 -21 c-3 -3 -9 2 -12 12 -6 14 -5
15 5 6 7 -7 10 -15 7 -18z m872 -12 c-5 -10 -35 -45 -66 -78 -36 -38 -43 -44
-20 -15 20 25 46 60 57 78 21 33 48 47 29 15z m790 -17 c11 -29 6 -94 -9 -109
-8 -8 -15 -6 -24 8 -8 10 -19 15 -25 11 -7 -4 -12 -3 -12 3 0 5 6 12 13 14 6
3 -16 6 -50 6 -66 1 -71 -3 -64 -56 1 -7 -3 -13 -9 -13 -5 0 -9 3 -8 8 1 8 -9
39 -23 64 -12 23 16 38 72 38 23 0 39 3 36 6 -3 4 -2 15 4 25 7 14 21 19 50
19 32 0 41 -4 49 -24z m-930 -6 c-6 -11 -13 -20 -16 -20 -2 0 0 9 6 20 6 11
13 20 16 20 2 0 0 -9 -6 -20z m284 -5 c3 -8 1 -15 -3 -15 -5 0 -11 7 -15 15
-3 8 -1 15 3 15 5 0 11 -7 15 -15z m-824 -25 c0 -5 -2 -10 -4 -10 -3 0 -8 5
-11 10 -3 6 -1 10 4 10 6 0 11 -4 11 -10z m580 6 c0 -2 -8 -10 -17 -17 -16
-13 -17 -12 -4 4 13 16 21 21 21 13z m120 -9 c0 -1 -39 -41 -87 -87 -49 -47
-78 -74 -65 -60 13 14 49 53 80 87 48 53 72 73 72 60z m-483 -104 c-2 -21 -4
-6 -4 32 0 39 2 55 4 38 2 -18 2 -50 0 -70z m150 75 c-3 -8 -6 -5 -6 6 -1 11
2 17 5 13 3 -3 4 -12 1 -19z m53 12 c0 -5 -5 -10 -11 -10 -5 0 -7 5 -4 10 3 6
8 10 11 10 2 0 4 -4 4 -10z m-829 -40 c28 -22 47 -40 42 -40 -10 0 -103 69
-103 76 0 10 14 1 61 -36z m79 -3 c23 -21 40 -40 38 -42 -1 -2 -25 17 -53 43
-27 25 -45 43 -39 41 6 -2 31 -21 54 -42z m140 -80 c0 -5 -27 19 -60 52 -33
34 -60 64 -60 68 0 4 27 -19 60 -52 33 -33 60 -63 60 -68z m52 -2 c12 -16 -3
-3 -33 29 -30 33 -60 69 -67 80 -19 29 75 -72 100 -109z m108 115 c0 -5 -2
-10 -4 -10 -3 0 -8 5 -11 10 -3 6 -1 10 4 10 6 0 11 -4 11 -10z m80 0 c0 -5
-2 -10 -4 -10 -3 0 -8 5 -11 10 -3 6 -1 10 4 10 6 0 11 -4 11 -10z m-537 -37
c15 -5 25 -23 12 -23 -11 0 -75 46 -75 54 0 5 10 1 23 -8 12 -9 30 -19 40 -23z
m372 -48 c31 -47 61 -87 66 -91 20 -12 7 22 -32 83 -22 36 -38 67 -35 70 3 3
13 -9 23 -27 10 -18 32 -53 49 -79 17 -25 34 -55 38 -66 5 -12 10 -15 13 -8 2
6 -15 46 -38 88 -23 42 -39 78 -37 81 3 2 23 -28 44 -68 52 -98 66 -131 52
-122 -6 4 -9 1 -6 -6 2 -7 12 -14 21 -16 13 -2 16 3 12 16 -3 10 0 20 9 23 9
4 16 -3 21 -20 3 -14 8 -23 11 -20 11 11 -9 58 -22 53 -8 -3 -14 0 -14 7 0 8
-4 7 -9 -3 -7 -10 -19 6 -45 65 -20 43 -34 80 -31 83 3 3 19 -26 36 -64 18
-38 34 -64 36 -57 2 7 -3 28 -12 47 -9 19 -15 41 -13 48 3 7 13 -11 22 -39 19
-58 40 -83 25 -31 -12 42 -12 61 1 53 6 -3 10 -18 11 -33 0 -15 5 -36 10 -47
7 -15 8 -11 5 18 -3 20 -1 37 5 37 5 0 9 -11 9 -24 0 -14 4 -27 9 -30 5 -4 7
4 3 16 -3 14 -2 19 6 14 7 -4 12 -17 13 -29 0 -18 2 -19 7 -5 6 13 10 14 23 5
9 -7 18 -19 22 -27 3 -8 6 2 6 22 1 38 21 65 21 28 0 -12 5 -18 10 -15 6 3 10
0 10 -8 0 -10 7 -13 20 -10 17 5 19 2 14 -24 -7 -33 21 -68 35 -44 10 16 1 62
-10 55 -10 -6 -12 9 -3 19 15 15 34 -6 28 -32 -4 -20 -3 -23 5 -11 7 9 11 10
11 3 0 -6 -4 -15 -10 -18 -5 -3 -10 -11 -10 -17 0 -7 6 -6 15 2 20 17 19 1 -2
-22 -9 -10 -11 -18 -5 -18 6 0 9 -6 6 -14 -4 -10 0 -13 13 -11 10 1 17 8 15
15 -1 7 3 20 10 29 9 11 6 10 -10 -3 -27 -24 -30 -6 -2 19 12 11 20 13 20 6 0
-7 5 -9 12 -5 6 4 4 -3 -5 -15 -17 -25 -12 -55 7 -44 6 3 3 -3 -8 -15 -10 -12
-22 -20 -26 -17 -4 2 -7 -2 -7 -10 0 -16 9 -11 54 28 12 11 27 16 33 12 6 -4
22 0 35 9 22 15 24 15 18 0 -4 -11 15 -5 65 20 39 19 73 40 77 46 3 5 14 10
23 10 23 0 7 -14 -53 -45 -27 -14 -72 -39 -100 -55 -59 -34 -77 -38 -44 -10
31 25 12 26 -21 0 -14 -11 -19 -20 -12 -20 7 0 10 -4 7 -10 -8 -14 17 -3 100
41 83 43 115 55 115 40 0 -6 -4 -11 -10 -11 -17 0 -151 -63 -145 -68 2 -3 32
5 66 17 33 13 63 21 65 18 4 -4 -64 -33 -120 -51 -10 -4 -16 -9 -13 -12 3 -3
31 3 61 14 31 11 56 16 56 11 0 -4 -25 -16 -55 -24 -30 -9 -55 -19 -55 -21 0
-3 21 -3 48 0 45 5 46 5 12 -5 -62 -19 -78 -29 -36 -22 28 4 37 3 32 -6 -4 -6
-19 -12 -34 -12 l-27 -1 30 -8 30 -8 -30 -1 c-23 -1 -27 -3 -15 -11 10 -6 11
-10 3 -10 -7 0 -13 -4 -13 -10 0 -16 38 -11 42 5 2 13 6 12 16 -5 11 -19 10
-20 -30 -20 -61 0 -42 -9 43 -20 l74 -9 -100 3 c-55 2 -85 1 -67 -1 17 -2 32
-7 32 -9 0 -10 -28 -33 -33 -27 -3 3 -14 -2 -23 -12 -16 -15 -15 -16 21 -9 34
6 37 5 24 -8 -8 -9 -20 -13 -26 -11 -7 3 -21 2 -30 -2 -17 -6 -17 -7 1 -21 14
-10 22 -11 27 -3 5 8 12 8 25 0 17 -9 17 -11 -6 -12 -14 -1 -30 -1 -36 0 -21
2 -25 -31 -7 -45 17 -13 17 -14 1 -8 -11 4 -18 1 -18 -6 0 -9 -4 -9 -17 1 -15
12 -16 12 -9 -5 7 -19 6 -19 -14 -1 -11 10 -20 13 -20 7 0 -6 -9 -9 -20 -7
-21 4 -27 -9 -10 -20 6 -3 10 0 10 7 1 7 12 0 26 -17 13 -16 22 -23 19 -14
-10 27 25 33 48 9 10 -12 22 -18 25 -15 4 4 -1 11 -11 16 -9 6 -17 15 -17 21
0 9 3 9 12 0 18 -18 28 -15 21 6 -6 15 -5 16 13 2 10 -8 24 -20 29 -26 6 -7
21 -15 35 -18 24 -7 24 -6 -5 18 -16 14 -24 26 -17 26 7 0 23 -9 35 -20 16
-16 31 -20 69 -17 26 2 51 0 57 -6 5 -5 15 -7 21 -5 7 2 -8 15 -33 28 -67 35
-50 36 24 0 66 -31 114 -39 107 -18 -3 7 -19 16 -36 20 -18 5 -32 13 -32 18 0
6 7 7 18 2 62 -31 94 -41 150 -47 64 -6 79 -1 40 15 -22 8 -22 9 4 9 14 1 28
-3 30 -8 5 -13 205 -24 213 -11 3 5 19 10 35 10 16 0 32 5 35 10 3 6 19 10 35
10 16 0 32 5 35 10 6 10 -13 15 -47 12 -10 -1 -18 4 -18 11 0 7 13 12 32 12
17 0 33 6 35 13 3 8 -7 12 -30 12 -41 0 -52 20 -48 82 2 28 -2 37 -16 41 -15
4 -14 5 4 6 12 0 24 5 27 10 7 10 -16 61 -27 61 -5 0 -2 7 6 15 9 8 13 23 10
34 -3 11 0 27 5 37 6 11 6 25 0 39 -5 12 -6 30 0 44 8 23 30 31 95 34 11 1 17
9 17 23 0 13 12 31 27 42 25 18 26 21 11 36 -17 16 -72 21 -102 10 -9 -3 -16
-15 -16 -25 0 -24 -29 -25 -32 -1 -5 58 -5 57 45 60 26 2 47 7 47 12 0 5 6 7
14 4 10 -4 13 0 9 14 -4 16 1 20 32 24 20 2 44 -2 55 -9 10 -7 25 -10 34 -7 9
3 16 3 16 0 0 -4 -11 -11 -25 -16 -22 -9 -24 -14 -20 -55 3 -40 1 -47 -18 -54
l-21 -8 22 -12 c12 -6 22 -18 22 -26 0 -18 30 -8 47 14 9 13 33 16 110 17 91
1 123 -6 123 -27 0 -5 -7 -6 -16 -2 -13 5 -15 -2 -12 -43 3 -47 4 -49 32 -46
18 3 26 0 22 -7 -4 -6 -16 -11 -26 -11 -26 0 -32 -14 -24 -55 4 -25 11 -35 25
-35 11 0 19 5 19 10 0 6 18 10 41 10 31 0 46 6 60 24 13 16 32 25 59 28 41 4
50 -4 50 -43 0 -10 5 -19 10 -19 6 0 10 4 10 10 0 5 6 7 14 4 10 -4 16 2 18
18 3 20 10 24 58 27 l55 5 -55 5 -55 6 -3 43 c-2 29 1 42 10 44 7 0 18 2 23 3
6 2 27 3 49 4 33 1 37 3 26 16 -10 12 -9 16 4 21 9 3 16 12 16 20 0 8 5 14 11
14 5 0 7 -6 4 -12 -4 -7 0 -4 9 6 15 19 13 41 -4 31 -4 -3 -10 1 -13 8 -6 15
-94 20 -102 6 -4 -5 3 -9 15 -9 38 0 15 -25 -28 -31 -47 -6 -77 5 -43 16 15 4
21 15 21 36 0 27 2 29 41 29 24 0 38 4 34 10 -3 6 -1 10 4 10 6 0 11 -4 11
-10 0 -5 5 -10 10 -10 6 0 10 11 10 26 0 24 2 25 48 22 45 -3 47 -4 50 -35 2
-18 7 -33 13 -33 5 0 9 -5 9 -11 0 -5 -4 -8 -9 -5 -5 3 -11 -8 -15 -25 -5 -24
-10 -30 -23 -25 -12 4 -10 0 5 -10 17 -13 22 -26 22 -64 0 -58 -7 -80 -26 -80
-8 0 -14 -4 -14 -10 0 -5 7 -10 15 -10 8 0 17 -10 19 -22 9 -40 12 -106 5
-102 -10 6 -21 -29 -11 -35 5 -3 14 -27 20 -53 14 -57 15 -68 2 -48 -8 12 -10
9 -10 -12 0 -34 -12 -35 -40 -6 -11 12 -20 18 -20 12 0 -5 -4 -3 -8 4 -12 18
-52 25 -46 7 4 -10 -3 -12 -29 -8 -26 3 -36 0 -41 -13 -6 -16 -8 -16 -26 1
-14 12 -18 25 -14 41 4 15 2 24 -5 24 -6 0 -11 -11 -11 -24 0 -14 -11 -33 -25
-44 -24 -19 -24 -20 -5 -25 16 -4 19 -11 14 -36 -6 -28 -5 -30 22 -27 16 2 52
5 79 6 28 1 44 4 38 7 -26 10 -12 32 23 39 l35 6 -22 24 c-30 32 -15 31 19 -1
15 -14 34 -25 42 -25 8 0 21 -9 28 -20 7 -12 24 -20 40 -21 27 0 27 -1 5 -11
-26 -12 -32 -44 -8 -34 12 4 15 -5 15 -48 l0 -53 39 -12 c22 -6 43 -11 48 -10
23 4 31 -3 29 -26 0 -14 -2 -25 -3 -25 -14 0 -31 15 -27 25 7 18 -29 25 -56
10 -16 -9 -19 -14 -10 -20 7 -4 16 -2 21 6 6 10 9 10 9 2 0 -18 -37 -36 -43
-20 -3 6 -6 -9 -6 -35 -1 -27 3 -48 8 -48 13 0 21 -27 15 -45 -4 -8 -10 -12
-16 -9 -5 3 -9 0 -7 -7 1 -8 1 -26 0 -41 -1 -26 -4 -28 -47 -28 -28 0 -43 -4
-39 -10 4 -6 10 -8 14 -5 5 2 17 -2 27 -10 17 -13 18 -14 2 -15 -10 0 -18 4
-18 10 0 5 -6 7 -14 4 -7 -3 -16 2 -19 10 -6 14 -124 16 -1091 16 l-1084 -1
-11 -37 -11 -37 5 38 c3 27 0 37 -11 37 -11 0 -14 -15 -14 -64 0 -36 -4 -67
-9 -71 -6 -3 -46 -6 -89 -6 l-80 -1 -16 -41 c-9 -22 -18 -38 -21 -35 -3 3 1
18 10 34 20 40 19 44 -13 44 -22 0 -30 -7 -39 -30 -6 -16 -16 -30 -22 -30 -8
0 -6 10 4 29 l15 30 -76 0 c-41 0 -72 -4 -69 -9 3 -4 2 -10 -3 -12 -4 -1 -29
-34 -55 -73 -87 -130 -180 -212 -315 -280 -112 -56 -207 -78 -342 -77 -240 0
-450 96 -603 276 -27 31 -53 54 -58 51 -5 -4 -6 0 -3 8 7 20 -56 119 -70 108
-18 -14 -166 -60 -166 -52 0 10 134 71 155 71 19 0 19 2 -6 71 -19 51 -24 57
-40 49 -23 -13 -59 -13 -59 -1 0 5 16 15 36 21 l36 12 -7 56 c-12 96 -6 215
15 298 56 221 224 430 420 522 30 15 57 30 58 34 2 5 7 6 11 4 4 -3 27 2 51
10 48 17 170 33 265 34 67 2 217 -36 304 -75 29 -14 58 -22 64 -18 5 3 7 1 4
-4 -7 -11 53 -63 72 -63 6 0 11 -4 11 -10 0 -5 15 -20 34 -32 32 -22 108 -110
132 -153 6 -11 22 -23 35 -26 16 -5 18 -7 7 -8 -22 -1 -24 -19 -3 -27 8 -4 15
-15 15 -25 0 -15 6 -19 23 -17 12 2 27 7 34 11 6 4 15 3 18 -3 8 -13 81 -5
140 15 22 7 53 16 69 20 15 3 26 8 23 11 -5 5 -67 -9 -103 -23 -8 -3 -14 -1
-14 4 0 5 17 14 38 20 l37 10 -35 3 c-31 2 -28 4 25 15 l60 13 -45 2 c-42 2
-43 3 -15 10 17 4 22 8 13 9 -25 1 -22 21 3 21 11 0 18 4 15 9 -4 5 0 12 6 14
7 3 -4 6 -24 6 -39 1 -50 14 -22 25 13 5 14 9 4 21 -8 9 -8 15 -2 15 6 0 12
-5 14 -11 3 -9 10 -9 27 0 27 15 23 35 -8 39 -15 2 -21 0 -17 -7 4 -6 2 -11
-4 -11 -7 0 -10 6 -7 13 2 6 -3 18 -12 25 -13 10 -11 10 12 2 36 -13 50 -13
42 0 -8 13 47 -11 58 -25 4 -5 6 1 4 14 -2 13 -17 35 -33 48 -16 12 -25 23
-20 23 11 0 71 -51 71 -61 0 -4 4 -11 9 -16 6 -5 6 -2 1 6 -6 11 -4 13 8 8 22
-8 30 8 12 23 -13 11 -13 14 2 27 10 8 11 11 3 7 -13 -7 -13 -6 -1 9 16 20 10
29 -21 34 -18 3 -19 1 -7 -14 7 -10 1 -7 -14 7 -21 18 -30 21 -36 12 -5 -9
-12 -7 -27 9 -19 22 -19 22 4 10 26 -14 28 -5 5 23 -10 12 -5 9 12 -6 24 -21
32 -24 41 -14 11 12 2 43 -16 56 -4 3 -19 23 -34 45 -14 22 -40 58 -56 80 -27
37 -36 55 -26 55 2 0 29 -38 61 -85z m2329 62 c-2 -7 -24 -12 -49 -13 -48 -1
-50 12 -3 18 15 2 30 7 34 11 10 10 24 -2 18 -16z m-2813 -17 l24 -19 -32 12
c-18 6 -33 15 -33 19 0 14 17 9 41 -12z m1979 5 c0 -8 -4 -15 -10 -15 -5 0 -7
7 -4 15 4 8 8 15 10 15 2 0 4 -7 4 -15z m-959 -22 c-12 -20 -14 -14 -5 12 4 9
9 14 11 11 3 -2 0 -13 -6 -23z m-1125 -10 c-7 -7 -26 7 -26 19 0 6 6 6 15 -2
9 -7 13 -15 11 -17z m834 6 c0 -6 -4 -7 -10 -4 -5 3 -10 11 -10 16 0 6 5 7 10
4 6 -3 10 -11 10 -16z m540 -11 c-14 -11 -41 -34 -60 -51 -71 -63 -84 -73 -74
-56 5 9 37 39 71 67 34 28 65 56 68 62 4 6 10 8 14 5 3 -4 -5 -16 -19 -27z
m-128 -10 c-7 -7 -12 -8 -12 -2 0 6 3 14 7 17 3 4 9 5 12 2 2 -3 -1 -11 -7
-17z m-385 -35 c-3 -10 -5 -2 -5 17 0 19 2 27 5 18 2 -10 2 -26 0 -35z m331
27 c-14 -22 -24 -19 -15 5 4 8 11 15 17 15 6 0 6 -7 -2 -20z m-1282 -6 c17
-14 17 -15 1 -10 -10 3 -23 6 -28 6 -5 0 -9 5 -9 10 0 14 13 12 36 -6z m465
-1 c13 -16 12 -17 -3 -4 -10 7 -18 15 -18 17 0 8 8 3 21 -13z m459 1 c0 -8 -5
-12 -10 -9 -6 4 -8 11 -5 16 9 14 15 11 15 -7z m142 -9 c-2 -14 -6 -25 -8 -25
-2 0 -4 11 -4 25 0 14 4 25 9 25 4 0 6 -11 3 -25z m-882 -1 l25 -15 -25 7
c-14 3 -29 10 -34 15 -16 14 6 10 34 -7z m800 -6 c0 -18 -2 -20 -9 -8 -6 8 -7
18 -5 22 9 14 14 9 14 -14z m231 -11 c-10 -9 -11 -8 -5 6 3 10 9 15 12 12 3
-3 0 -11 -7 -18z m-886 -5 c-3 -3 -11 0 -18 7 -9 10 -8 11 6 5 10 -3 15 -9 12
-12z m1094 -32 c-35 -27 -67 -50 -70 -50 -10 0 -20 -30 -11 -30 4 0 32 16 61
35 30 20 58 34 64 32 10 -3 -13 -18 -107 -74 -28 -17 -37 -19 -32 -8 8 22 -14
18 -42 -7 -20 -18 -24 -19 -19 -5 7 20 -4 22 -21 5 -7 -7 -12 -10 -12 -7 0 3
12 16 27 30 20 18 25 20 20 7 -11 -30 6 -21 94 51 46 38 90 70 98 70 7 1 -15
-21 -50 -49z m-3225 25 c-17 -8 -47 -32 -67 -54 -42 -46 -49 -44 -13 4 23 30
79 65 101 64 6 0 -4 -7 -21 -14z m5558 -3 c29 -19 88 -89 88 -105 0 -5 -7 -4
-15 3 -8 7 -15 18 -15 24 0 17 -60 73 -90 85 -14 5 -18 10 -10 10 8 1 27 -7
42 -17z m-3846 -2 c15 -6 25 -13 22 -15 -3 -3 -22 1 -44 9 -21 8 -31 15 -22
15 9 1 29 -4 44 -9z m560 -18 c-4 -3 -14 2 -24 12 -16 18 -16 18 6 6 13 -6 21
-14 18 -18z m696 1 c-5 -26 -4 -27 13 -13 18 14 18 14 0 -15 -25 -39 -30 -44
-21 -21 4 11 3 22 -2 25 -6 4 -6 16 -1 29 11 30 17 28 11 -5z m113 6 c-3 -8
-15 -20 -26 -27 -23 -15 -20 -5 10 30 17 20 24 18 16 -3z m-729 -11 l19 -21
-27 18 c-29 18 -34 25 -20 25 5 0 17 -10 28 -22z m54 7 c10 -12 10 -15 -3 -15
-8 0 -17 7 -21 15 -3 8 -2 15 3 15 5 0 14 -7 21 -15z m-210 -5 c0 -5 -2 -10
-4 -10 -3 0 -8 5 -11 10 -3 6 -1 10 4 10 6 0 11 -4 11 -10z m265 -1 c11 -17
-1 -21 -15 -4 -8 9 -8 15 -2 15 6 0 14 -5 17 -11z m565 -10 c-7 -11 -14 -18
-17 -15 -3 3 0 12 7 21 18 21 23 19 10 -6z m90 18 c0 -2 -15 -16 -32 -33 -27
-24 -29 -25 -13 -4 24 30 45 47 45 37z m-1140 -17 c13 -8 13 -10 -2 -10 -9 0
-20 5 -23 10 -8 13 5 13 25 0z m540 -10 c6 -11 9 -20 7 -20 -2 0 -12 9 -22 20
-10 11 -13 20 -7 20 6 0 16 -9 22 -20z m1590 -10 c0 -5 -4 -10 -10 -10 -5 0
-10 5 -10 10 0 6 5 10 10 10 6 0 10 -4 10 -10z m480 -10 c0 -5 -5 -10 -11 -10
-5 0 -7 5 -4 10 3 6 8 10 11 10 2 0 4 -4 4 -10z m-2395 -10 c3 -6 -1 -7 -9 -4
-18 7 -21 14 -7 14 6 0 13 -4 16 -10z m826 -13 c-10 -9 -11 -8 -5 6 3 10 9 15
12 12 3 -3 0 -11 -7 -18z m949 3 c0 -5 -5 -10 -11 -10 -5 0 -7 5 -4 10 3 6 8
10 11 10 2 0 4 -4 4 -10z m-930 -20 c-6 -11 -16 -20 -22 -20 -6 0 -3 9 7 20
10 11 20 20 22 20 2 0 -1 -9 -7 -20z m310 10 c0 -5 -5 -10 -11 -10 -5 0 -7 5
-4 10 3 6 8 10 11 10 2 0 4 -4 4 -10z m-945 -10 c3 -5 2 -10 -4 -10 -5 0 -13
5 -16 10 -3 6 -2 10 4 10 5 0 13 -4 16 -10z m50 0 c3 -5 1 -10 -4 -10 -6 0
-11 5 -11 10 0 6 2 10 4 10 3 0 8 -4 11 -10z m1445 6 c0 -3 -4 -8 -10 -11 -5
-3 -10 -1 -10 4 0 6 5 11 10 11 6 0 10 -2 10 -4z m-563 -52 c-3 -3 -12 -4 -19
-1 -8 3 -5 6 6 6 11 1 17 -2 13 -5z m-3466 -64 c-5 -25 -9 -35 -10 -24 -1 28
11 92 16 79 1 -6 -1 -30 -6 -55z m2704 32 c-3 -3 3 -14 12 -25 17 -19 17 -20
-3 -9 -28 15 -51 42 -35 42 7 0 9 5 5 13 -5 8 -2 7 9 -2 10 -8 15 -16 12 -19z
m-110 8 c3 -5 2 -10 -4 -10 -5 0 -13 5 -16 10 -3 6 -2 10 4 10 5 0 13 -4 16
-10z m2115 -20 c0 -5 -18 -10 -39 -10 -22 0 -46 -3 -55 -6 -9 -3 -16 -1 -16 4
0 11 29 18 83 21 15 0 27 -3 27 -9z m-4526 -35 c36 -33 33 -42 -7 -26 -10 4
-18 11 -17 16 2 15 -32 32 -37 19 -2 -6 -10 -20 -18 -30 -13 -18 -14 -16 -12
18 2 34 5 38 28 38 16 0 40 -13 63 -35z m2467 18 c13 -15 12 -15 -8 -4 -24 12
-29 21 -14 21 5 0 15 -7 22 -17z m779 7 c-8 -5 -24 -10 -35 -10 -17 0 -17 2
-5 10 8 5 24 10 35 10 17 0 17 -2 5 -10z m2271 3 c0 -5 3 -30 5 -57 4 -34 2
-46 -6 -41 -6 4 -9 13 -6 21 8 21 -15 64 -34 64 -9 0 -42 -27 -73 -61 -32 -33
-57 -56 -57 -51 0 20 125 132 148 132 12 0 22 -3 23 -7z m-3226 -13 l20 -9
-20 0 c-11 0 -27 4 -35 9 -13 9 -13 10 0 9 8 0 24 -4 35 -9z m55 -20 c0 -5 -2
-10 -4 -10 -3 0 -8 5 -11 10 -3 6 -1 10 4 10 6 0 11 -4 11 -10z m880 -10 c0
-5 -8 -10 -17 -10 -15 0 -16 2 -3 10 19 12 20 12 20 0z m-40 -14 c0 -2 -9 -6
-20 -9 -11 -3 -20 -1 -20 4 0 5 9 9 20 9 11 0 20 -2 20 -4z m-833 -12 c-3 -3
-12 -4 -19 -1 -8 3 -5 6 6 6 11 1 17 -2 13 -5z m3273 -14 c0 -5 -4 -10 -10
-10 -5 0 -10 5 -10 10 0 6 5 10 10 10 6 0 10 -4 10 -10z m-749 -33 c-10 -9
-11 -8 -5 6 3 10 9 15 12 12 3 -3 0 -11 -7 -18z m-1711 -7 c0 -5 -7 -7 -15 -4
-8 4 -15 8 -15 10 0 2 7 4 15 4 8 0 15 -4 15 -10z m-3194 -79 c4 -11 8 -10 19
5 13 17 14 17 15 2 0 -10 -11 -51 -24 -91 -38 -117 -47 -205 -32 -312 4 -33 5
-57 1 -53 -4 4 -9 20 -11 35 -2 15 -8 50 -13 77 -5 27 -8 54 -6 60 2 6 6 29 9
51 3 22 10 54 16 70 6 16 11 50 10 75 -3 68 2 148 7 120 2 -14 6 -31 9 -39z
m2391 53 c-3 -3 -12 -4 -19 -1 -8 3 -5 6 6 6 11 1 17 -2 13 -5z m783 -4 c0 -5
-7 -10 -16 -10 -8 0 -12 5 -9 10 3 6 10 10 16 10 5 0 9 -4 9 -10z m-800 -20
c0 -5 -7 -10 -15 -10 -8 0 -15 5 -15 10 0 6 7 10 15 10 8 0 15 -4 15 -10z
m3133 -102 c3 -59 9 -113 13 -120 18 -29 18 -127 0 -198 l-14 -55 5 105 c5
106 2 124 -48 290 -6 19 -13 46 -15 60 l-5 25 20 -24 c12 -13 22 -18 22 -12 1
6 3 16 4 21 1 6 3 13 4 17 4 24 10 -17 14 -109z m-2206 86 c-3 -3 -12 -4 -19
-1 -8 3 -5 6 6 6 11 1 17 -2 13 -5z m-969 -21 c-10 -2 -26 -2 -35 0 -10 3 -2
5 17 5 19 0 27 -2 18 -5z m929 -9 c-3 -3 -12 -4 -19 -1 -8 3 -5 6 6 6 11 1 17
-2 13 -5z m80 -10 c-3 -3 -12 -4 -19 -1 -8 3 -5 6 6 6 11 1 17 -2 13 -5z
m-1037 -14 c0 -5 -4 -10 -10 -10 -5 0 -10 5 -10 10 0 6 5 10 10 10 6 0 10 -4
10 -10z m920 -6 c0 -2 -11 -4 -25 -4 -14 0 -25 4 -25 9 0 4 11 6 25 3 14 -2
25 -6 25 -8z m-93 -10 c-3 -3 -12 -4 -19 -1 -8 3 -5 6 6 6 11 1 17 -2 13 -5z
m2154 -17 c-13 -13 -26 -3 -16 12 3 6 11 8 17 5 6 -4 6 -10 -1 -17z m-2981 3
c0 -5 -5 -10 -11 -10 -5 0 -7 5 -4 10 3 6 8 10 11 10 2 0 4 -4 4 -10z m877 4
c-3 -3 -12 -4 -19 -1 -8 3 -5 6 6 6 11 1 17 -2 13 -5z m-907 -14 c0 -5 -4 -10
-10 -10 -5 0 -10 5 -10 10 0 6 5 10 10 10 6 0 10 -4 10 -10z m855 0 c3 -5 2
-10 -4 -10 -5 0 -13 5 -16 10 -3 6 -2 10 4 10 5 0 13 -4 16 -10z m2131 -47
c-11 -11 -19 6 -11 24 8 17 8 17 12 0 3 -10 2 -21 -1 -24z m-2136 17 c0 -5 -7
-7 -15 -4 -8 4 -15 8 -15 10 0 2 7 4 15 4 8 0 15 -4 15 -10z m2130 -40 c0 -5
-4 -10 -10 -10 -5 0 -10 5 -10 10 0 6 5 10 10 10 6 0 10 -4 10 -10z m-2195
-10 c3 -5 1 -10 -4 -10 -6 0 -11 5 -11 10 0 6 2 10 4 10 3 0 8 -4 11 -10z
m1545 6 c0 -3 -4 -8 -10 -11 -5 -3 -10 -1 -10 4 0 6 5 11 10 11 6 0 10 -2 10
-4z m-1037 -13 c-7 -2 -19 -2 -25 0 -7 3 -2 5 12 5 14 0 19 -2 13 -5z m-276
-9 c-3 -3 -12 -4 -19 -1 -8 3 -5 6 6 6 11 1 17 -2 13 -5z m-3027 -25 c0 -5 -4
-9 -10 -9 -5 0 -10 7 -10 16 0 8 5 12 10 9 6 -3 10 -10 10 -16z m3380 17 c0
-3 -4 -8 -10 -11 -5 -3 -10 -1 -10 4 0 6 5 11 10 11 6 0 10 -2 10 -4z m1597
-11 c0 -8 -4 -15 -9 -15 -4 0 -8 7 -8 15 0 8 4 15 8 15 5 0 9 -7 9 -15z
m-2053 -10 c7 -19 -3 -19 -28 0 -19 15 -19 15 1 15 11 0 23 -7 27 -15z m556
-5 c12 -8 9 -10 -12 -7 -15 1 -30 6 -34 10 -11 11 29 8 46 -3z m1243 3 c-13
-2 -35 -2 -50 0 -16 2 -5 4 22 4 28 0 40 -2 28 -4z m467 -53 c0 -5 -4 -10 -10
-10 -5 0 -10 5 -10 10 0 6 5 10 10 10 6 0 10 -4 10 -10z m-5169 -51 c3 -19 9
-45 13 -58 6 -17 5 -22 -5 -19 -8 3 -16 15 -17 29 -5 30 -20 49 -35 44 -12 -4
-49 -13 -99 -22 -34 -6 -78 4 -78 17 0 16 38 27 114 33 37 3 71 9 74 12 13 12
27 -4 33 -36z m5279 -16 c-11 -17 -11 -17 -6 0 3 10 7 26 7 35 1 15 2 15 6 0
2 -10 -1 -25 -7 -35z m-5230 -38 c0 -9 -6 -12 -15 -9 -8 4 -12 10 -9 15 8 14
24 10 24 -6z m7 -47 c-3 -8 -6 -5 -6 6 -1 11 2 17 5 13 3 -3 4 -12 1 -19z
m5169 -64 c-3 -9 -6 -18 -6 -20 0 -2 -4 -4 -9 -4 -5 0 -7 9 -4 20 3 11 10 20
15 20 6 0 7 -7 4 -16z m5 -41 c-12 -20 -14 -14 -5 12 4 9 9 14 11 11 3 -2 0
-13 -6 -23z m-21 -3 c0 -5 -5 -10 -11 -10 -5 0 -7 5 -4 10 3 6 8 10 11 10 2 0
4 -4 4 -10z m-370 -74 c0 -7 11 -34 25 -60 14 -26 25 -55 24 -64 0 -9 -7 0
-16 21 -8 20 -19 37 -24 37 -5 0 -10 -17 -10 -37 -3 -84 -4 -96 -15 -100 -7
-2 -10 11 -8 39 2 24 4 73 5 111 1 37 5 67 10 67 5 0 9 -6 9 -14z m317 -75 c0
-21 -5 -28 -16 -26 -17 3 -17 27 0 33 5 2 7 8 3 13 -3 5 -1 9 4 9 5 0 9 -13 9
-29z m-5120 -53 c-3 -7 -5 -2 -5 12 0 14 2 19 5 13 2 -7 2 -19 0 -25z m5089
-14 c-4 -9 -9 -15 -11 -12 -3 3 -3 13 1 22 4 9 9 15 11 12 3 -3 3 -13 -1 -22z
m-5322 0 c3 -8 2 -12 -4 -9 -6 3 -10 10 -10 16 0 14 7 11 14 -7z m296 -45 c0
-11 -4 -18 -9 -14 -6 3 -9 14 -8 25 2 24 17 15 17 -11z m4800 21 c0 -5 -4 -10
-10 -10 -5 0 -10 5 -10 10 0 6 5 10 10 10 6 0 10 -4 10 -10z m-5010 -124 c0
-13 -10 -1 -24 30 -13 28 -29 55 -35 58 -6 4 -11 13 -11 19 0 7 16 -10 35 -37
19 -27 35 -59 35 -70z m4633 88 c4 -1 11 -2 17 -3 5 0 8 -11 6 -23 -3 -13 -5
-26 -5 -30 -2 -12 -40 -4 -46 10 -2 7 -1 11 4 8 5 -3 11 1 15 9 3 8 1 15 -3
15 -5 0 -12 7 -15 16 -4 10 -2 13 7 7 6 -4 15 -8 20 -9z m377 -19 c0 -5 -5 -3
-10 5 -5 8 -10 20 -10 25 0 6 5 3 10 -5 5 -8 10 -19 10 -25z m-2730 21 c0 -3
-4 -8 -10 -11 -5 -3 -10 -1 -10 4 0 6 5 11 10 11 6 0 10 -2 10 -4z m2907 -16
c-1 -11 -4 -20 -8 -20 -4 0 -12 -14 -19 -30 -15 -37 -31 -49 -22 -18 6 21 43
88 49 88 1 0 1 -9 0 -20z m-4969 -75 c0 -38 -1 -39 -8 -10 -4 17 -8 44 -8 60
-1 25 1 27 8 10 5 -11 8 -38 8 -60z m4715 29 c-2 -26 -9 -56 -14 -68 -8 -20
-3 72 6 102 9 27 13 9 8 -34z m-4563 27 c0 -10 -30 -24 -37 -17 -3 3 -2 9 2
15 8 13 35 15 35 2z m1798 -59 c-7 -18 -16 -32 -20 -32 -11 0 -10 2 8 39 20
40 28 35 12 -7z m3049 16 c-3 -8 -6 -5 -6 6 -1 11 2 17 5 13 3 -3 4 -12 1 -19z
m-4643 -40 c-18 -30 -89 -65 -99 -48 -8 13 33 43 60 43 14 0 28 3 31 8 3 5 7
9 10 9 3 0 2 -6 -2 -12z m4056 -2 c0 -8 -5 -18 -11 -21 -7 -5 -2 -16 12 -31
12 -13 17 -24 11 -24 -7 0 -12 -6 -12 -14 0 -8 -6 -16 -14 -19 -8 -3 -15 -14
-16 -24 -3 -76 -10 -107 -23 -115 -16 -8 -67 -93 -67 -110 0 -15 -122 -137
-160 -160 -19 -12 -50 -33 -69 -47 -31 -24 -86 -38 -75 -19 5 7 -12 12 -69 21
-24 4 -34 -3 -71 -52 -71 -91 -138 -141 -234 -172 -20 -6 -41 -15 -47 -19 -16
-10 -175 -13 -175 -2 0 5 19 10 43 10 37 1 102 8 102 12 0 1 12 3 28 5 24 3
114 42 127 55 3 3 22 18 43 33 42 32 71 60 105 103 26 33 28 44 7 44 -8 0 -15
-5 -15 -10 0 -23 -107 -130 -129 -130 -5 0 -11 -3 -13 -7 -1 -5 -29 -21 -60
-37 -50 -24 -69 -28 -150 -29 -90 -1 -133 3 -153 15 -6 3 -28 11 -50 18 -22 7
-46 17 -52 23 -7 5 -13 6 -13 1 0 -5 -4 -4 -8 2 -12 17 -98 53 -134 55 -33 3
-78 -15 -78 -30 0 -4 22 -9 50 -10 55 -2 72 -7 166 -52 35 -17 62 -35 59 -40
-3 -4 -25 2 -50 15 -72 39 -135 56 -202 56 -59 0 -64 -2 -73 -25 -10 -27 -40
-34 -40 -10 0 17 66 85 81 85 6 0 7 4 4 10 -4 6 1 7 11 3 13 -5 16 -3 11 10
-4 11 -2 14 9 10 7 -3 14 0 14 6 0 6 6 8 14 5 8 -3 17 -1 20 4 6 10 42 29 138
71 26 12 82 26 125 32 94 14 267 18 308 8 99 -25 281 -35 329 -19 54 17 44 40
-24 57 -55 13 -139 11 -295 -6 -38 -5 -126 -9 -194 -10 -127 -2 -231 -17 -311
-46 -42 -15 -151 -76 -176 -100 -36 -32 -57 -46 -62 -39 -4 4 -1 9 6 11 6 3
12 9 12 14 0 14 47 59 54 52 3 -4 6 -1 6 5 0 7 7 12 15 12 8 0 15 5 15 10 0 6
7 10 15 10 8 0 15 5 15 12 0 6 3 9 6 5 4 -3 24 3 45 13 21 11 45 20 54 20 8 0
15 5 15 11 0 5 5 7 10 4 6 -4 19 -3 28 1 37 15 112 22 307 28 83 3 173 7 200
10 28 3 68 8 90 10 22 3 81 8 130 11 50 4 113 14 140 22 53 16 119 59 111 72
-3 4 11 15 30 25 24 11 33 12 28 4 -4 -7 9 3 28 22 27 26 33 39 27 52 -12 23
-11 31 3 22 8 -5 9 0 5 16 -4 16 -3 20 5 12 13 -13 38 7 31 25 -3 7 -1 13 5
13 15 0 22 39 12 66 -7 18 -6 22 6 17 10 -4 12 -1 7 13 -4 11 -3 15 5 10 7 -4
14 3 18 19 7 27 24 35 24 11z m571 -13 c-12 -20 -14 -14 -5 12 4 9 9 14 11 11
3 -2 0 -13 -6 -23z m-2971 -7 c0 -3 -4 -8 -10 -11 -5 -3 -10 -1 -10 4 0 6 5
11 10 11 6 0 10 -2 10 -4z m2740 -21 c-7 -9 -15 -13 -17 -11 -7 7 7 26 19 26
6 0 6 -6 -2 -15z m-4985 -74 c4 -17 11 -33 16 -36 5 -4 9 -14 9 -23 0 -9 -3
-12 -8 -6 -10 10 -52 126 -52 140 0 16 28 -44 35 -75z m247 21 c1 -32 5 -42
17 -41 39 3 43 -2 17 -22 l-26 -20 -34 26 c-38 29 -53 55 -31 55 7 0 17 -4 20
-10 13 -22 22 -8 20 31 -1 23 1 37 6 32 5 -5 10 -28 11 -51z m4692 16 c-3 -33
-1 -39 8 -30 18 18 39 15 36 -5 -3 -15 -50 -51 -69 -53 -4 0 -3 21 2 46 5 25
8 48 8 52 -3 18 2 32 10 32 5 0 7 -19 5 -42z m240 -34 c-40 -109 -46 -125 -50
-122 -5 6 24 97 48 150 31 68 32 54 2 -28z m-2961 34 c-3 -16 -9 -28 -14 -28
-12 0 -11 4 3 35 14 31 18 29 11 -7z m-1667 7 c-3 -8 -1 -15 4 -15 4 0 11 -14
15 -30 4 -17 11 -28 16 -24 5 3 9 0 9 -6 0 -6 4 -9 9 -6 5 3 8 -12 7 -34 0
-29 5 -45 22 -60 12 -11 22 -25 22 -30 0 -14 34 -12 49 3 10 10 11 8 5 -7 -6
-15 -4 -17 6 -11 9 5 11 4 6 -4 -4 -6 -12 -9 -17 -6 -5 3 -6 0 -3 -7 8 -20 91
-78 111 -78 10 0 27 -7 37 -15 13 -10 43 -15 83 -15 36 0 94 -4 131 -10 97
-14 162 -19 297 -25 66 -3 159 -7 208 -9 62 -3 87 -1 87 7 0 8 3 7 9 -2 5 -7
22 -15 37 -18 68 -10 76 -13 182 -66 46 -22 89 -49 97 -60 8 -11 18 -16 26
-12 8 5 10 4 5 -4 -4 -6 2 -23 13 -37 35 -44 24 -47 -19 -5 -22 21 -72 58
-111 81 -123 75 -215 96 -459 105 -85 3 -173 8 -195 12 -75 11 -239 8 -294 -6
l-53 -14 27 -23 c16 -13 38 -24 49 -25 81 -3 184 4 261 18 138 24 349 18 460
-13 31 -9 230 -108 233 -116 2 -5 8 -6 13 -2 5 3 9 0 9 -6 0 -7 7 -9 17 -6 10
4 15 4 12 1 -4 -3 7 -20 22 -36 25 -27 40 -79 23 -79 -9 0 -30 24 -37 44 -11
29 -142 19 -221 -17 -65 -30 -66 -30 -66 -18 0 8 92 52 135 65 11 3 42 7 68 7
48 2 48 2 29 22 -11 11 -32 20 -46 20 -36 0 -116 -24 -116 -34 0 -5 -5 -9 -11
-9 -5 0 -31 -10 -57 -21 -152 -70 -292 -75 -408 -17 -69 34 -202 152 -185 163
5 3 19 -8 31 -25 12 -16 30 -30 40 -30 10 0 22 -5 26 -12 4 -7 3 -8 -4 -4 -7
4 -12 2 -12 -3 0 -6 12 -11 28 -11 21 0 24 2 12 10 -8 5 -10 10 -5 10 6 0 10
21 10 48 0 44 -2 47 -27 49 -16 1 -28 -1 -28 -6 0 -4 -8 -8 -17 -8 -59 1 -93
-4 -93 -13 0 -15 173 -184 190 -185 3 -1 14 -6 25 -12 49 -26 151 -47 223 -45
23 0 42 -4 42 -10 0 -26 -259 13 -280 42 -3 4 -16 11 -30 15 -13 4 -30 13 -37
21 -7 7 -23 21 -35 31 -19 15 -39 38 -117 135 -4 4 -39 2 -79 -3 l-73 -10 -57
48 c-31 26 -58 51 -60 55 -2 5 -9 8 -14 8 -14 0 -142 131 -143 145 -1 27 -52
114 -69 119 -18 5 -18 7 -5 23 15 19 18 41 7 59 -13 19 -17 64 -6 64 5 0 8 -7
4 -15z m4579 -4 c-3 -6 -11 -11 -17 -11 -6 0 -6 6 2 15 14 17 26 13 15 -4z
m-45 -94 c-5 -12 -11 -35 -15 -50 -4 -20 -10 -27 -21 -23 -9 3 -12 1 -9 -4 3
-6 0 -10 -8 -10 -8 0 -20 -6 -27 -14 -6 -8 -19 -12 -27 -9 -13 5 -11 8 8 15
19 7 21 11 9 18 -12 8 -11 10 5 10 19 0 56 43 70 82 4 10 11 16 16 13 4 -3 4
-16 -1 -28z m-4981 1 c5 -13 20 -34 33 -48 30 -33 38 -62 9 -36 -11 10 -24 15
-30 12 -6 -4 -15 12 -22 36 -6 24 -13 46 -16 51 -2 4 1 7 7 7 6 0 15 -10 19
-22z m2158 -30 c-3 -8 -6 -5 -6 6 -1 11 2 17 5 13 3 -3 4 -12 1 -19z m2660 -5
c-3 -16 -12 -66 -21 -111 -8 -46 -15 -87 -14 -90 3 -15 -15 -62 -23 -62 -12 0
-12 -4 10 98 11 48 22 106 24 129 5 42 13 63 24 63 3 0 3 -12 0 -27z m-4654
-30 c4 -23 2 -42 -5 -48 -7 -7 -9 -7 -5 1 3 5 2 27 -3 47 -4 20 -4 37 0 37 4
0 10 -17 13 -37z m-213 -21 c0 -15 -2 -15 -10 -2 -13 20 -13 33 0 25 6 -3 10
-14 10 -23z m5046 -87 c-13 -35 -15 -37 -15 -13 -1 33 21 90 26 68 2 -9 -3
-33 -11 -55z m-5018 -25 c0 -8 -6 1 -13 20 -7 19 -13 42 -13 50 0 8 6 -1 13
-20 7 -19 13 -42 13 -50z m202 66 c0 -3 -4 -8 -10 -11 -5 -3 -10 -1 -10 4 0 6
5 11 10 11 6 0 10 -2 10 -4z m7 -74 c1 -20 5 -48 8 -60 4 -15 2 -21 -5 -17 -5
3 -10 22 -10 41 0 46 -18 51 -74 20 -25 -14 -46 -21 -46 -16 0 5 19 18 43 28
23 10 48 26 56 36 18 21 25 14 28 -32z m-188 -57 c0 -5 -4 -3 -9 5 -5 8 -9 22
-9 30 0 16 17 -16 18 -35z m4920 -99 c-36 -48 -131 -117 -158 -115 -9 1 -4 6
12 12 15 6 27 14 27 19 0 4 7 8 15 8 19 0 105 78 105 94 0 14 22 38 28 31 3
-2 -10 -24 -29 -49z m-4695 -28 c4 -24 3 -38 -4 -38 -5 0 -10 12 -10 28 0 15
-3 38 -6 52 -4 18 -3 21 4 10 5 -8 12 -32 16 -52z m-173 25 c13 -16 12 -17 -3
-4 -10 7 -18 15 -18 17 0 8 8 3 21 -13z m4086 -88 c0 -8 -4 -12 -9 -9 -5 3 -6
10 -3 15 9 13 12 11 12 -6z m-2147 -36 c0 -5 -7 -9 -15 -9 -15 0 -20 12 -9 23
8 8 24 -1 24 -14z m1000 13 c0 -13 -12 -22 -22 -16 -10 6 -1 24 13 24 5 0 9
-4 9 -8z m1130 -22 c0 -5 -2 -10 -4 -10 -3 0 -8 5 -11 10 -3 6 -1 10 4 10 6 0
11 -4 11 -10z m-2540 -100 c0 -5 -4 -10 -10 -10 -5 0 -10 5 -10 10 0 6 5 10
10 10 6 0 10 -4 10 -10z m-36 -21 c-3 -5 -10 -7 -15 -3 -5 3 -7 10 -3 15 3 5
10 7 15 3 5 -3 7 -10 3 -15z m1886 6 c0 -8 -4 -15 -10 -15 -5 0 -10 7 -10 15
0 8 5 15 10 15 6 0 10 -7 10 -15z m40 -16 c0 -5 -4 -9 -10 -9 -5 0 -10 7 -10
16 0 8 5 12 10 9 6 -3 10 -10 10 -16z m-1960 7 c0 -3 -4 -8 -10 -11 -5 -3 -10
-1 -10 4 0 6 5 11 10 11 6 0 10 -2 10 -4z m1991 -9 c-1 -12 -15 -9 -19 4 -3 6
1 10 8 8 6 -3 11 -8 11 -12z m-2021 -1 c0 -2 -7 -6 -15 -10 -8 -3 -15 -1 -15
4 0 6 7 10 15 10 8 0 15 -2 15 -4z m2501 -33 c13 -16 12 -17 -3 -4 -17 13 -22
21 -14 21 2 0 10 -8 17 -17z m-2181 -8 c0 -2 -13 -11 -30 -20 -16 -9 -30 -11
-30 -6 0 7 22 19 58 30 1 1 2 -1 2 -4z m1390 -16 c0 -4 -7 -6 -15 -3 -8 4 -15
10 -15 15 0 4 7 6 15 3 8 -4 15 -10 15 -15z m760 0 c0 -6 -4 -7 -10 -4 -5 3
-10 11 -10 16 0 6 5 7 10 4 6 -3 10 -11 10 -16z m-40 -14 c7 -9 8 -15 2 -15
-5 0 -12 7 -16 15 -3 8 -4 15 -2 15 2 0 9 -7 16 -15z m-2210 -4 c0 -6 -4 -13
-10 -16 -5 -3 -10 1 -10 9 0 9 5 16 10 16 6 0 10 -4 10 -9z m30 5 c0 -3 -4 -8
-10 -11 -5 -3 -10 -1 -10 4 0 6 5 11 10 11 6 0 10 -2 10 -4z m1537 -18 c-3 -8
-6 -5 -6 6 -1 11 2 17 5 13 3 -3 4 -12 1 -19z m43 -10 c0 -5 -4 -8 -10 -8 -5
0 -10 10 -10 23 0 18 2 19 10 7 5 -8 10 -18 10 -22z m-1640 13 c0 -6 -4 -13
-10 -16 -5 -3 -10 1 -10 9 0 9 5 16 10 16 6 0 10 -4 10 -9z m194 0 c7 -11 -14
-20 -31 -13 -7 2 -13 8 -13 13 0 12 37 12 44 0z m1266 0 c0 -18 -17 -20 -36
-6 -18 14 -18 14 9 15 15 0 27 -4 27 -9z m221 -10 c6 10 9 11 9 2 0 -7 9 -13
19 -13 11 0 23 -5 26 -10 4 -6 10 -8 15 -5 5 3 12 0 15 -6 4 -5 14 -8 22 -5 8
3 20 3 26 -1 7 -4 19 -8 27 -8 8 0 16 -8 18 -19 3 -13 0 -16 -10 -10 -7 5 -28
10 -46 11 -19 1 -40 7 -48 14 -8 6 -14 8 -14 4 0 -4 -6 -2 -14 4 -8 6 -18 11
-22 10 -25 -4 -54 15 -54 35 1 20 1 20 11 2 9 -15 13 -16 20 -5z m-1711 -1 c0
-11 -30 -25 -78 -37 -24 -6 -26 -5 -13 11 8 9 16 15 18 12 2 -2 16 2 31 10 32
17 42 17 42 4z m2240 -5 c11 -13 10 -14 -4 -9 -9 3 -16 10 -16 15 0 13 6 11
20 -6z m-2745 -15 c-3 -5 -11 -10 -16 -10 -6 0 -7 5 -4 10 3 6 11 10 16 10 6
0 7 -4 4 -10z m2705 -6 c0 -8 -4 -12 -10 -9 -5 3 -10 10 -10 16 0 5 5 9 10 9
6 0 10 -7 10 -16z m-2314 -19 c-3 -9 -11 -13 -16 -10 -8 5 -7 11 1 21 14 18
24 11 15 -11z m2273 -1 c3 -16 1 -17 -13 -5 -19 16 -21 34 -3 29 6 -3 14 -13
16 -24z m-2313 -9 c-3 -9 -11 -13 -16 -10 -8 5 -7 11 1 21 14 18 24 11 15 -11z
m2264 4 c0 -5 -4 -9 -10 -9 -5 0 -10 7 -10 16 0 8 5 12 10 9 6 -3 10 -10 10
-16z m-2530 7 c0 -3 -4 -8 -10 -11 -5 -3 -10 -1 -10 4 0 6 5 11 10 11 6 0 10
-2 10 -4z m42 -18 c-7 -7 -12 -8 -12 -2 0 14 12 26 19 19 2 -3 -1 -11 -7 -17z
m183 3 c-3 -6 -11 -11 -17 -11 -6 0 -6 6 2 15 14 17 26 13 15 -4z m2259 13 c8
-3 12 -12 9 -20 -4 -11 -9 -12 -19 -3 -8 6 -14 15 -14 20 0 11 3 11 24 3z
m-2403 -27 c-10 -9 -11 -8 -5 6 3 10 9 15 12 12 3 -3 0 -11 -7 -18z m52 8 c-3
-9 -8 -14 -10 -11 -3 3 -2 9 2 15 9 16 15 13 8 -4z m2222 4 c10 -14 1 -21 -19
-13 -9 3 -13 10 -10 15 7 12 21 11 29 -2z m43 -8 c3 -8 -1 -12 -9 -9 -7 2 -15
10 -17 17 -3 8 1 12 9 9 7 -2 15 -10 17 -17z m42 3 c0 -8 -4 -12 -10 -9 -5 3
-10 10 -10 16 0 5 5 9 10 9 6 0 10 -7 10 -16z m-2260 2 c0 -3 -4 -8 -10 -11
-5 -3 -10 -1 -10 4 0 6 5 11 10 11 6 0 10 -2 10 -4z"/>
<path d="M5392 1955 c0 -16 2 -22 5 -12 2 9 2 23 0 30 -3 6 -5 -1 -5 -18z"/>
<path d="M5442 1884 c1 -10 -6 -43 -16 -72 -13 -37 -15 -57 -8 -64 7 -7 13 1
17 28 4 22 11 55 16 74 5 21 5 38 -1 44 -5 5 -8 2 -8 -10z"/>
<path d="M5386 1845 c-9 -25 -7 -58 5 -75 7 -11 8 -6 4 19 -5 23 -4 31 4 27
13 -8 14 13 2 32 -7 11 -10 10 -15 -3z"/>
<path d="M4208 2723 c7 -3 16 -2 19 1 4 3 -2 6 -13 5 -11 0 -14 -3 -6 -6z"/>
<path d="M2790 2481 c5 -11 7 -26 4 -34 -3 -8 0 -18 7 -23 9 -5 10 -2 5 11 -5
15 -4 16 9 5 20 -16 19 -5 -2 31 -19 32 -40 41 -23 10z"/>
<path d="M2941 2474 c0 -11 3 -14 6 -6 3 7 2 16 -1 19 -3 4 -6 -2 -5 -13z"/>
<path d="M2961 2474 c0 -11 3 -14 6 -6 3 7 2 16 -1 19 -3 4 -6 -2 -5 -13z"/>
<path d="M3052 2470 c0 -14 2 -19 5 -12 2 6 2 18 0 25 -3 6 -5 1 -5 -13z"/>
<path d="M1514 2456 c-273 -68 -475 -260 -560 -534 -19 -61 -29 -219 -20 -305
7 -61 10 -67 27 -62 23 8 26 -10 3 -23 -13 -7 -13 -14 3 -63 13 -39 23 -54 36
-53 20 2 23 -12 5 -19 -15 -5 35 -106 59 -120 7 -4 13 -13 13 -20 0 -7 20 -33
45 -59 31 -34 49 -46 62 -42 15 5 15 4 3 -5 -8 -5 -12 -12 -10 -14 109 -83
182 -124 280 -155 330 -106 681 14 873 300 31 46 59 91 63 101 5 13 18 17 60
17 30 0 54 4 54 9 0 13 53 92 58 87 2 -3 -8 -25 -23 -50 l-27 -46 27 0 c15 0
34 8 41 17 13 17 14 17 8 1 -5 -15 0 -18 25 -18 18 0 31 5 31 13 0 9 2 9 8 0
4 -7 33 -11 75 -11 67 1 67 1 67 29 0 16 -4 29 -9 29 -5 0 -4 17 1 40 l10 40
242 0 c375 1 466 4 465 15 0 6 -7 9 -15 7 -8 -2 -14 2 -14 8 0 5 9 10 20 10
18 0 25 -10 21 -32 -2 -14 167 -9 173 5 5 10 7 10 12 0 3 -7 21 -13 41 -13 30
0 34 2 28 21 -5 16 -3 20 6 17 8 -3 13 -13 13 -22 -2 -15 49 -16 634 -16 589
0 636 2 649 18 14 16 14 16 9 -1 -3 -9 -1 -17 4 -17 6 0 10 14 10 31 0 23 -4
30 -15 26 -8 -4 -17 -1 -21 5 -4 6 -3 8 2 5 6 -3 16 -2 24 3 11 7 9 13 -11 29
-23 20 -23 20 -3 21 27 0 31 23 24 145 l-5 90 -22 -24 c-22 -24 -43 -21 -43 5
0 8 -1 14 -2 14 -2 0 -33 3 -70 6 -64 6 -68 5 -68 -14 0 -12 -4 -23 -9 -26
-15 -9 -33 22 -26 43 5 18 2 21 -19 19 -21 -2 -26 -8 -26 -30 0 -32 -6 -37
-51 -40 -19 -1 -40 -6 -46 -11 -9 -6 -13 -5 -13 3 0 8 -14 11 -45 8 -52 -4
-55 0 -55 78 0 37 -4 53 -11 49 -6 -4 -9 -24 -6 -46 4 -36 -1 -44 -25 -40 -5
0 -8 -6 -8 -14 0 -8 -7 -15 -15 -15 -8 0 -15 5 -15 11 0 6 -9 8 -20 4 -14 -4
-20 -2 -20 8 0 16 -36 17 -60 2 -9 -5 -11 -4 -6 3 5 8 0 12 -13 12 -14 0 -23
-9 -27 -25 -8 -32 -34 -33 -34 -2 0 18 -5 23 -22 22 -22 -2 -39 -25 -18 -25 6
0 9 -4 5 -9 -3 -5 -19 -9 -35 -9 -24 1 -28 4 -18 15 6 8 7 17 2 22 -15 14 -69
20 -84 10 -11 -6 -4 -9 23 -9 26 0 37 -4 37 -15 0 -17 0 -17 -60 -6 -35 7 -46
6 -56 -6 -13 -19 -34 -9 -34 17 0 20 -52 39 -58 21 -2 -6 -12 -11 -22 -11 -29
0 -50 -11 -43 -23 4 -7 0 -8 -12 -3 -49 18 -107 25 -150 17 -26 -5 -61 -5 -77
0 -16 4 -67 5 -113 1 -46 -4 -92 -5 -102 -1 -10 4 -45 5 -78 3 -33 -2 -90 -5
-126 -6 l-66 -3 16 -26 c30 -48 60 -81 71 -77 6 2 0 16 -15 33 -14 17 -31 39
-37 50 -10 18 -10 19 6 6 13 -11 19 -12 25 -3 5 9 13 6 27 -9 19 -22 19 -22
-3 -10 -32 17 -29 -2 7 -39 35 -36 64 -41 30 -5 -32 34 -8 32 26 -2 20 -20 29
-24 32 -14 3 8 -3 20 -13 28 -10 7 -16 15 -13 18 3 3 21 -8 39 -24 28 -26 69
-42 69 -27 0 3 -25 25 -55 50 -39 31 -49 44 -35 43 11 -1 20 -6 20 -13 0 -6
19 -24 43 -40 23 -16 44 -32 47 -36 9 -11 160 -6 153 5 -4 7 1 7 13 3 33 -14
104 -19 104 -8 0 5 -10 12 -22 15 -12 4 -19 9 -16 12 3 4 27 -3 53 -15 33 -15
61 -20 98 -18 l52 3 -50 24 c-27 13 -44 26 -37 29 8 2 19 -1 25 -7 6 -6 18
-11 27 -11 10 0 32 -8 51 -17 34 -18 215 -31 205 -15 -3 5 0 14 5 22 8 13 10
13 18 0 5 -8 7 -18 4 -24 -3 -5 1 -14 9 -20 12 -9 -1 -11 -54 -8 -38 3 -74 0
-79 -5 -6 -6 10 -9 40 -8 27 1 48 -2 45 -7 -8 -12 130 -6 138 6 5 8 8 7 8 -1
0 -7 11 -13 25 -13 14 0 25 5 25 10 0 6 7 10 15 10 8 0 15 -5 15 -11 0 -6 10
-9 23 -7 15 2 22 10 24 28 0 14 1 33 2 43 1 9 6 17 12 17 6 0 9 -21 7 -52 -3
-52 -4 -53 -35 -56 -46 -4 -41 -23 5 -21 20 0 87 -1 147 -3 l110 -3 3 55 c1
30 5 62 9 70 10 24 20 -53 14 -101 -5 -35 -10 -44 -26 -45 -52 -2 -65 -5 -65
-12 0 -10 336 -10 346 1 5 4 3 17 -4 27 -7 12 -8 20 -2 20 5 0 10 25 10 55 0
30 5 55 10 55 6 0 10 -28 10 -63 0 -37 5 -69 13 -76 9 -11 9 -13 0 -7 -9 5
-13 -1 -13 -18 l0 -25 -272 0 c-150 -1 -341 -1 -425 -1 -93 1 -154 -3 -158
-10 -3 -5 -11 -10 -16 -10 -6 0 -8 4 -5 9 3 5 -14 11 -39 13 -54 4 -65 1 -59
-17 3 -7 0 -16 -5 -20 -6 -3 -8 -12 -4 -18 4 -7 -1 -5 -11 3 -11 8 -14 16 -7
18 23 8 10 21 -26 27 -21 3 -51 8 -66 10 -20 3 -27 1 -25 -10 2 -7 -1 -13 -7
-12 -5 1 -9 6 -7 11 2 5 -15 6 -37 3 -22 -3 -42 -2 -46 1 -3 3 -32 6 -65 6
-42 1 -60 -3 -60 -11 0 -7 -4 -13 -10 -13 -5 0 -10 4 -10 10 0 11 -128 12
-135 0 -3 -5 -18 -2 -33 6 -24 12 -28 12 -34 -4 -11 -27 -9 -35 7 -29 8 4 17
2 20 -2 7 -12 -26 -24 -37 -13 -5 5 -10 19 -11 31 -1 15 -8 21 -25 21 -20 0
-22 -3 -13 -14 8 -10 9 -16 1 -21 -13 -8 -32 4 -25 16 10 14 -24 23 -39 10
-10 -8 -16 -9 -21 -2 -8 13 -115 12 -115 -1 0 -5 -8 -2 -17 8 -17 17 -18 17
-21 0 -4 -17 -5 -17 -23 0 -17 16 -19 16 -19 1 0 -22 -16 -22 -24 -1 -8 22
-19 11 -24 -24 -5 -38 -12 -41 -12 -4 0 37 -15 49 -30 25 -8 -13 -13 -14 -16
-5 -7 15 -117 16 -146 1 -15 -8 -19 -8 -14 0 4 6 1 11 -8 11 -8 0 -17 -6 -19
-12 -4 -10 -8 -9 -16 2 -9 12 -14 13 -31 2 -12 -7 -20 -8 -20 -2 0 19 -32 10
-37 -10 -3 -11 -10 -20 -15 -20 -5 0 -6 9 -3 20 9 30 -33 27 -44 -3 -5 -13
-16 -29 -26 -37 -12 -10 -11 -4 5 23 l22 37 -24 0 c-17 0 -33 -15 -62 -60 -22
-33 -43 -60 -48 -60 -10 0 -10 17 0 22 5 2 23 24 41 51 30 45 31 47 11 47 -12
0 -30 -10 -40 -22 -10 -13 -22 -20 -26 -16 -4 4 -2 14 4 21 14 17 27 16 -173
16 -88 1 -171 1 -185 2 -32 2 -43 2 -115 1 -199 -3 -270 -2 -287 4 -17 5 -19
14 -16 75 2 40 -1 70 -7 71 -6 2 -11 -65 -12 -184 -2 -208 -7 -228 -62 -265
-49 -33 -90 -30 -136 10 l-39 34 -4 101 c-3 57 -9 102 -14 102 -6 0 -8 -41 -6
-105 l3 -105 43 -40 c26 -25 52 -40 67 -40 15 0 25 -6 25 -14 0 -25 -66 0
-120 46 -18 15 -43 66 -44 90 -1 10 -5 18 -11 17 -18 0 -5 -58 22 -99 25 -37
93 -80 127 -80 15 0 32 -18 24 -25 -10 -10 -86 20 -125 48 -24 17 -46 27 -50
23 -10 -9 59 -66 75 -61 6 2 12 0 12 -5 0 -5 20 -15 45 -21 25 -6 45 -16 45
-21 0 -15 -92 3 -122 24 -16 11 -28 16 -29 11 0 -4 -4 2 -9 15 -10 23 -36 39
-47 28 -22 -22 119 -106 176 -106 17 0 31 -5 31 -11 0 -13 -83 -4 -113 12 -9
6 -23 7 -29 3 -6 -4 -9 -3 -5 2 3 5 -16 27 -42 49 -48 40 -82 98 -96 163 -4
17 -7 144 -7 282 -1 220 -3 250 -17 253 -14 4 -13 5 2 6 14 1 17 11 17 56 l0
55 -40 -5 c-23 -3 -40 -1 -40 5 0 6 3 9 8 9 4 -1 21 -1 38 0 28 1 32 5 50 62
16 50 30 71 80 118 52 50 69 59 122 71 107 22 216 -6 278 -72 18 -18 44 -58
59 -88 26 -50 28 -66 31 -185 2 -71 3 -136 3 -142 1 -10 60 -13 261 -13 236 0
260 2 269 18 10 16 10 16 11 0 0 -15 9 -18 56 -18 47 0 63 5 100 32 24 17 44
35 44 39 0 4 8 10 18 13 9 4 -3 -13 -27 -36 -36 -35 -41 -44 -27 -46 10 -2 32
9 49 25 18 15 24 19 14 7 -9 -11 -17 -23 -17 -27 0 -13 106 -3 124 12 18 15
19 15 13 -1 -4 -12 -1 -18 8 -18 8 0 15 6 15 14 0 8 5 18 12 22 8 5 9 0 6 -14
-7 -26 7 -29 22 -4 11 16 11 16 6 0 -3 -10 -1 -18 4 -18 6 0 10 5 10 10 0 6 5
10 11 10 5 0 7 -4 4 -10 -3 -5 0 -10 8 -10 9 0 20 16 26 38 l10 37 -2 -37 c-3
-37 6 -51 16 -25 4 8 6 8 6 -2 1 -11 5 -10 16 5 13 17 14 17 15 2 0 -22 7 -23
26 -4 18 19 18 26 -1 26 -11 0 -14 7 -10 28 l5 27 -11 -27 c-7 -18 -15 -25
-25 -21 -12 4 -13 8 -4 13 20 12 0 32 -26 27 -16 -3 -24 1 -26 12 -3 11 -9 5
-18 -16 -8 -18 -18 -33 -23 -33 -4 0 0 15 9 33 16 29 16 31 1 18 -15 -12 -17
-11 -17 4 0 15 -2 16 -17 4 -11 -10 -14 -10 -9 -1 4 6 3 12 -3 12 -5 0 -11 -6
-14 -12 -2 -7 -7 -10 -11 -7 -4 4 0 14 9 22 8 9 15 22 15 29 0 10 -3 9 -11 -2
-8 -12 -12 -12 -16 -2 -4 10 -9 9 -24 -4 -23 -21 -25 -38 -3 -30 14 6 15 4 4
-9 -10 -12 -15 -13 -20 -4 -5 7 -14 8 -21 4 -8 -5 -4 3 9 17 27 29 28 40 5 31
-16 -6 -16 -5 -4 11 11 13 16 14 22 4 6 -10 11 -10 20 -1 6 6 18 9 25 6 8 -3
14 0 14 7 0 6 -4 8 -10 5 -5 -3 -10 -1 -10 6 0 8 -4 8 -15 -1 -21 -17 -19 -1
2 24 18 21 18 21 -7 0 -53 -44 -68 -43 -22 2 15 15 18 21 8 13 -14 -10 -20
-11 -23 -2 -2 7 -11 9 -20 6 -10 -4 -14 -2 -10 4 9 14 -92 10 -120 -5 -12 -7
-28 -12 -35 -11 -7 0 -3 5 10 11 12 6 22 15 22 19 0 10 -71 -1 -86 -13 -8 -5
-14 -3 -18 8 -5 12 -14 15 -34 11 -26 -5 -31 -1 -63 60 -36 71 -184 237 -222
249 -12 5 -31 7 -42 6 -19 -2 -19 -1 -1 6 17 8 16 11 -15 29 -152 94 -386 126
-575 79z m179 -33 c-7 -2 -19 -2 -25 0 -7 3 -2 5 12 5 14 0 19 -2 13 -5z m44
-9 c-3 -3 -12 -4 -19 -1 -8 3 -5 6 6 6 11 1 17 -2 13 -5z m-57 -86 c11 -7 9
-8 -10 -4 -14 3 -49 6 -78 6 -33 0 -51 4 -47 10 7 12 113 3 135 -12z m970
-322 c0 -7 -113 -57 -118 -52 -3 3 19 17 49 31 52 24 69 29 69 21z m34 -17
c-4 -8 1 -9 17 -4 33 10 20 -1 -89 -75 -51 -34 -95 -60 -98 -57 -3 3 34 31 81
62 83 54 105 77 54 55 -24 -10 -41 -20 -92 -54 -15 -10 -31 -16 -33 -13 -6 6
13 19 96 66 58 33 76 38 64 20z m-204 -19 c0 -5 -8 -10 -17 -10 -15 0 -16 2
-3 10 19 12 20 12 20 0z m219 -33 c-2 -1 -12 -9 -22 -16 -15 -12 -17 -12 -11
3 3 9 13 16 22 16 8 0 13 -1 11 -3z m-77 -55 c-18 -15 -53 -45 -77 -66 -25
-21 -48 -36 -52 -33 -6 7 14 25 102 89 59 43 74 49 27 10z m63 8 c-3 -5 -11
-10 -16 -10 -6 0 -7 5 -4 10 3 6 11 10 16 10 6 0 7 -4 4 -10z m2142 -22 c-3
-7 -5 -2 -5 12 0 14 2 19 5 13 2 -7 2 -19 0 -25z m-3667 8 c0 -3 -4 -8 -10
-11 -5 -3 -10 -1 -10 4 0 6 5 11 10 11 6 0 10 -2 10 -4z m-45 -16 c-27 -12
-35 -12 -35 0 0 6 12 10 28 9 24 0 25 -1 7 -9z m2261 -17 c-7 -7 -26 7 -26 19
0 6 6 6 15 -2 9 -7 13 -15 11 -17z m129 2 c25 -21 26 -23 7 -18 -12 3 -22 9
-22 14 0 6 -10 14 -22 19 -13 5 -16 9 -8 9 8 0 28 -11 45 -24z m155 15 c13 -8
13 -10 -2 -10 -9 0 -20 5 -23 10 -8 13 5 13 25 0z m-867 -15 c-3 -9 -8 -14
-10 -11 -3 3 -2 9 2 15 9 16 15 13 8 -4z m782 5 c3 -5 1 -10 -4 -10 -6 0 -11
5 -11 10 0 6 2 10 4 10 3 0 8 -4 11 -10z m255 -6 c0 -2 -9 -4 -20 -4 -11 0
-20 4 -20 9 0 5 9 7 20 4 11 -3 20 -7 20 -9z m167 10 c-3 -3 -12 -4 -19 -1 -8
3 -5 6 6 6 11 1 17 -2 13 -5z m58 -14 c11 -1 31 -7 45 -15 l25 -14 -27 -1
c-15 0 -30 5 -33 10 -3 6 -17 10 -31 10 -16 0 -24 6 -24 17 0 13 3 14 12 5 7
-7 21 -12 33 -12z m525 16 c0 -3 -4 -8 -10 -11 -5 -3 -10 -1 -10 4 0 6 5 11
10 11 6 0 10 -2 10 -4z m-1842 -41 c-6 -14 -15 -25 -20 -25 -5 0 -1 11 8 25 9
14 18 25 20 25 2 0 -2 -11 -8 -25z m142 15 c0 -5 -5 -10 -11 -10 -5 0 -7 5 -4
10 3 6 8 10 11 10 2 0 4 -4 4 -10z m845 0 c3 -5 2 -10 -4 -10 -5 0 -13 5 -16
10 -3 6 -2 10 4 10 5 0 13 -4 16 -10z m-70 -20 c3 -5 -1 -10 -9 -10 -8 0 -18
5 -21 10 -3 6 1 10 9 10 8 0 18 -4 21 -10z m-967 -12 c-2 -6 -10 -14 -16 -16
-7 -2 -10 2 -6 12 7 18 28 22 22 4z m892 -3 c14 -16 10 -18 -14 -9 -9 3 -16
10 -16 15 0 14 16 11 30 -6z m930 -35 c0 -5 -5 -10 -11 -10 -5 0 -7 5 -4 10 3
6 8 10 11 10 2 0 4 -4 4 -10z m-3510 -64 c-25 -15 -45 -12 -35 5 4 5 18 9 33
9 l27 -1 -25 -13z m2569 -117 c-16 -10 -23 -4 -14 10 3 6 11 8 17 5 6 -4 5 -9
-3 -15z m-434 -9 c3 -5 1 -10 -4 -10 -6 0 -11 5 -11 10 0 6 2 10 4 10 3 0 8
-4 11 -10z m42 -12 c-3 -8 -6 -5 -6 6 -1 11 2 17 5 13 3 -3 4 -12 1 -19z m468
12 c3 -5 1 -10 -4 -10 -6 0 -11 5 -11 10 0 6 2 10 4 10 3 0 8 -4 11 -10z m262
4 c-3 -3 -12 -4 -19 -1 -8 3 -5 6 6 6 11 1 17 -2 13 -5z m-817 -14 c0 -5 -2
-10 -4 -10 -3 0 -8 5 -11 10 -3 6 -1 10 4 10 6 0 11 -4 11 -10z m515 0 c3 -5
1 -10 -4 -10 -6 0 -11 5 -11 10 0 6 2 10 4 10 3 0 8 -4 11 -10z m1314 -6 c2
-2 -10 -4 -27 -4 -18 0 -32 5 -32 10 0 9 47 4 59 -6z m-2299 -94 c-6 -12 -14
-20 -17 -17 -2 3 1 14 8 26 17 26 24 19 9 -9z"/>
<path d="M2843 2395 c0 -29 23 -41 30 -15 5 20 -2 34 -19 37 -6 1 -11 -9 -11
-22z"/>
<path d="M4435 2400 c-3 -5 -15 -10 -25 -10 -24 0 -36 -20 -19 -31 20 -13 29
-11 29 6 0 8 4 15 10 15 5 0 7 -7 4 -15 -4 -9 -1 -15 7 -15 26 0 38 15 32 38
-6 23 -27 30 -38 12z"/>
<path d="M4496 2401 c-4 -7 -5 -15 -2 -18 9 -9 19 4 14 18 -4 11 -6 11 -12 0z"/>
<path d="M4165 2363 c-31 -4 -55 -26 -55 -50 0 -10 13 -13 43 -12 75 3 86 8
85 40 -1 31 -4 31 -73 22z m12 -39 c-3 -3 -12 -4 -19 -1 -8 3 -5 6 6 6 11 1
17 -2 13 -5z"/>
<path d="M4308 2358 c-8 -7 -18 -21 -21 -30 -5 -15 0 -18 33 -18 22 0 40 5 40
10 0 6 -4 10 -10 10 -5 0 -10 9 -10 20 0 23 -10 25 -32 8z"/>
<path d="M4890 2347 c0 -20 5 -23 41 -23 22 0 44 -6 48 -13 6 -10 10 -9 15 4
13 36 7 50 -26 52 -17 1 -38 -2 -45 -8 -9 -8 -13 -8 -13 0 0 6 -4 11 -10 11
-5 0 -10 -10 -10 -23z"/>
<path d="M3216 2341 c-12 -13 -14 -21 -6 -26 14 -9 23 0 27 25 4 25 1 25 -21
1z"/>
<path d="M5010 2334 c0 -14 4 -23 10 -19 6 3 10 15 10 26 0 10 -4 19 -10 19
-5 0 -10 -12 -10 -26z"/>
<path d="M4250 2330 c0 -5 5 -10 11 -10 5 0 7 5 4 10 -3 6 -8 10 -11 10 -2 0
-4 -4 -4 -10z"/>
<path d="M3269 2308 c-11 -37 -5 -45 21 -28 11 7 11 10 2 10 -7 0 -10 5 -7 10
3 6 1 10 -4 10 -6 0 -11 -1 -12 -2z"/>
<path d="M4345 2300 c-22 -4 -43 -6 -47 -3 -10 5 -9 -36 0 -57 8 -18 34 -20
45 -2 4 6 26 12 47 12 41 0 47 9 34 44 -7 17 -17 18 -79 6z"/>
<path d="M2730 2291 c0 -6 5 -13 10 -16 6 -3 10 1 10 9 0 9 -4 16 -10 16 -5 0
-10 -4 -10 -9z"/>
<path d="M4440 2285 c0 -8 2 -15 4 -15 2 0 6 7 10 15 3 8 1 15 -4 15 -6 0 -10
-7 -10 -15z"/>
<path d="M4127 2264 c-15 -15 -6 -23 21 -20 15 2 20 1 12 -1 -8 -3 -19 -9 -24
-14 -11 -10 46 -12 82 -3 23 7 31 34 10 35 -7 0 -31 2 -54 5 -22 2 -43 1 -47
-2z"/>
<path d="M4945 2260 c-3 -4 4 -10 15 -13 11 -3 22 -2 25 3 3 4 -4 10 -15 13
-11 3 -22 2 -25 -3z"/>
<path d="M1575 2249 c22 -4 49 -8 60 -8 17 -1 17 1 5 9 -8 5 -35 9 -60 9 l-45
-1 40 -9z"/>
<path d="M4718 2253 c7 -3 16 -2 19 1 4 3 -2 6 -13 5 -11 0 -14 -3 -6 -6z"/>
<path d="M2694 2242 c3 -6 -2 -13 -11 -15 -14 -4 -13 -5 5 -6 23 -1 30 13 10
25 -6 4 -8 3 -4 -4z"/>
<path d="M3270 2240 c-13 -8 -12 -10 3 -10 9 0 17 5 17 10 0 12 -1 12 -20 0z"/>
<path d="M1392 2194 c-23 -19 -42 -40 -42 -45 0 -18 22 -9 52 21 16 17 33 30
37 30 4 0 16 7 27 15 18 14 18 14 -7 15 -15 0 -42 -14 -67 -36z"/>
<path d="M1670 2225 c0 -3 18 -16 40 -30 22 -14 54 -48 71 -75 29 -47 49 -63
49 -39 0 15 -20 49 -41 73 -11 11 -19 23 -19 27 0 10 -68 49 -86 49 -8 0 -14
-2 -14 -5z"/>
<path d="M4915 2215 c-29 -13 -28 -13 33 -14 40 -1 61 3 57 9 -4 6 -11 8 -16
5 -5 -4 -9 -2 -9 2 0 14 -32 12 -65 -2z"/>
<path d="M1520 2211 c-39 -8 -95 -36 -105 -51 -10 -16 21 -12 62 9 66 34 104
36 174 7 64 -26 77 -27 64 -6 -19 31 -130 54 -195 41z"/>
<path d="M4804 2183 c-7 -28 -6 -45 3 -63 11 -22 13 -23 14 -5 0 11 3 14 6 8
3 -9 21 -11 61 -7 73 7 82 10 82 28 0 11 -14 16 -52 18 -49 3 -53 5 -56 31 -3
28 -17 36 -25 15 -4 -10 -6 -10 -6 0 -2 25 -17 11 -27 -25z"/>
<path d="M4308 2203 c-10 -2 -18 -10 -19 -16 0 -7 -2 -19 -4 -29 -4 -19 41
-31 67 -17 9 5 30 9 47 9 16 0 32 6 34 13 3 7 6 5 6 -5 1 -15 10 -17 61 -14
32 2 57 -1 54 -5 -3 -5 0 -9 5 -9 6 0 11 -7 11 -15 0 -8 5 -15 10 -15 6 0 10
9 10 20 0 14 7 20 23 21 91 2 158 7 163 11 3 3 2 18 -2 32 -4 19 -10 24 -18
17 -9 -7 -17 -7 -25 2 -11 9 -14 9 -18 0 -3 -7 -9 -13 -14 -13 -6 0 -7 5 -4
10 3 6 -3 10 -15 10 -14 0 -20 -5 -18 -16 2 -10 -3 -19 -11 -22 -9 -3 -11 1
-6 17 4 12 2 21 -4 21 -6 0 -11 -11 -11 -24 0 -15 -7 -26 -20 -29 -16 -4 -18
-1 -13 24 4 22 2 29 -10 29 -9 0 -22 -8 -29 -18 -16 -22 -79 -27 -71 -5 7 19
-20 26 -61 14 -21 -5 -34 -6 -31 0 4 5 1 9 -4 9 -6 0 -11 -12 -11 -26 0 -20
-4 -25 -16 -20 -9 3 -18 6 -20 6 -2 0 -4 9 -4 20 0 20 -2 21 -32 13z"/>
<path d="M1522 2169 c-18 -5 -30 -14 -26 -20 3 -6 13 -7 23 -3 27 11 105 4
131 -13 14 -9 37 -30 51 -46 14 -17 28 -26 32 -21 8 14 -41 74 -60 74 -9 0
-21 6 -27 14 -15 19 -83 27 -124 15z"/>
<path d="M1726 2128 c4 -7 17 -25 28 -40 16 -23 20 -48 24 -145 6 -158 23
-172 21 -18 -1 101 -4 127 -22 165 -12 25 -30 47 -41 48 -13 3 -16 0 -10 -10z"/>
<path d="M1325 2103 c-22 -32 -35 -203 -16 -203 7 0 11 24 11 63 1 55 8 87 35
150 11 27 -11 20 -30 -10z"/>
<path d="M1368 2094 c-10 -19 -18 -41 -18 -49 0 -26 18 -16 29 17 6 17 19 40
28 50 15 17 15 18 -3 18 -12 0 -26 -14 -36 -36z"/>
<path d="M1414 2090 c-20 -30 -24 -44 -16 -52 8 -8 14 -3 24 18 7 16 24 39 38
51 l25 22 -22 1 c-16 0 -31 -13 -49 -40z"/>
<path d="M1497 2111 c-40 -26 -62 -60 -49 -73 8 -8 14 -4 22 14 13 27 67 58
101 58 35 0 99 -39 111 -68 6 -15 11 -78 12 -139 1 -70 5 -112 11 -110 13 3
12 246 -1 255 -6 4 -13 15 -17 24 -19 52 -135 76 -190 39z"/>
<path d="M2748 2123 c7 -3 16 -2 19 1 4 3 -2 6 -13 5 -11 0 -14 -3 -6 -6z"/>
<path d="M4134 2095 c-19 -14 -18 -14 4 -15 13 0 22 6 22 15 0 19 -1 19 -26 0z"/>
<path d="M4180 2079 c0 -24 3 -30 16 -25 9 3 20 6 25 6 5 0 9 5 9 10 0 6 -10
10 -22 10 -23 1 -23 1 2 15 l25 14 -27 1 c-25 0 -28 -4 -28 -31z"/>
<path d="M4310 2100 c19 -13 30 -13 30 0 0 6 -10 10 -22 10 -19 0 -20 -2 -8
-10z"/>
<path d="M4437 2103 c-3 -5 -5 -20 -5 -35 0 -26 3 -28 40 -24 49 4 62 16 18
16 -27 0 -31 2 -20 15 6 8 9 19 5 25 -7 12 -32 14 -38 3z"/>
<path d="M4660 2089 c0 -24 23 -21 28 4 2 10 -3 17 -12 17 -10 0 -16 -9 -16
-21z"/>
<path d="M4700 2095 c0 -8 7 -15 15 -15 8 0 15 7 15 15 0 8 -7 15 -15 15 -8 0
-15 -7 -15 -15z"/>
<path d="M4398 2086 c-29 -28 -21 -47 10 -27 8 5 12 17 10 26 -3 18 -4 18 -20
1z"/>
<path d="M1506 2056 l-35 -36 0 -321 -1 -321 34 -34 c26 -26 42 -34 69 -34 43
0 84 32 95 75 10 36 9 456 -1 472 -4 7 -4 14 1 17 4 2 7 17 6 33 0 15 -2 49
-2 75 -3 63 -32 97 -90 105 -39 5 -45 3 -76 -31z"/>
<path d="M4556 2064 c-3 -9 -3 -20 0 -25 3 -6 0 -17 -7 -25 -9 -11 -9 -18 -1
-26 17 -17 24 -5 29 47 6 44 -8 63 -21 29z"/>
<path d="M4305 2060 c-3 -5 3 -10 14 -10 12 0 21 5 21 10 0 6 -6 10 -14 10 -8
0 -18 -4 -21 -10z"/>
<path d="M4705 2059 c-10 -15 3 -25 16 -12 7 7 7 13 1 17 -6 3 -14 1 -17 -5z"/>
<path d="M4755 2060 c-3 -5 -1 -10 4 -10 6 0 11 5 11 10 0 6 -2 10 -4 10 -3 0
-8 -4 -11 -10z"/>
<path d="M1816 2038 c3 -12 6 -68 7 -125 0 -57 4 -103 9 -103 5 0 6 5 3 10 -3
6 -2 10 4 10 6 0 10 34 10 88 -1 111 -7 142 -25 142 -11 0 -13 -6 -8 -22z"/>
<path d="M2625 2050 c-8 -13 15 -13 35 0 12 8 11 10 -7 10 -12 0 -25 -4 -28
-10z"/>
<path d="M3218 2052 c-19 -4 -24 -17 -10 -26 11 -7 35 10 31 21 -2 5 -12 7
-21 5z"/>
<path d="M1735 2018 c9 -44 25 -60 25 -26 0 33 -9 58 -22 58 -6 0 -7 -13 -3
-32z"/>
<path d="M4588 2016 c-4 -18 -1 -26 8 -26 16 0 18 18 5 38 -6 10 -10 7 -13
-12z"/>
<path d="M1349 2018 c-6 -13 -7 -58 -2 -82 4 -21 7 -25 14 -15 11 17 9 88 -3
95 -4 3 -9 4 -9 2z"/>
<path d="M1387 2006 c-3 -7 0 -19 6 -25 8 -8 8 -11 -1 -11 -7 0 -12 -12 -12
-26 0 -46 25 -20 28 29 3 44 -10 64 -21 33z"/>
<path d="M1430 1795 c0 -143 4 -225 10 -225 6 0 10 82 10 225 0 143 -4 225
-10 225 -6 0 -10 -82 -10 -225z"/>
<path d="M4300 1985 c0 -23 5 -35 14 -35 7 0 27 -3 43 -6 27 -5 32 -3 42 26
11 32 11 32 -19 28 -20 -3 -30 0 -30 9 0 7 -11 13 -25 13 -22 0 -25 -4 -25
-35z"/>
<path d="M3194 1998 c-3 -5 -2 -14 3 -19 12 -12 40 -2 40 14 0 16 -34 20 -43
5z"/>
<path d="M4275 2000 c-3 -5 -1 -10 4 -10 6 0 11 5 11 10 0 6 -2 10 -4 10 -3 0
-8 -4 -11 -10z"/>
<path d="M3143 1987 c4 -14 26 -16 30 -3 1 5 -6 10 -16 12 -10 1 -16 -3 -14
-9z"/>
<path d="M4411 1970 l-10 -30 47 2 c36 1 40 2 15 5 -32 4 -32 5 -17 29 15 23
15 24 -4 24 -13 0 -24 -10 -31 -30z"/>
<path d="M4180 1979 c0 -5 5 -7 10 -4 6 3 10 8 10 11 0 2 -4 4 -10 4 -5 0 -10
-5 -10 -11z"/>
<path d="M1737 1954 c-8 -8 1 -24 14 -24 5 0 9 7 9 15 0 15 -12 20 -23 9z"/>
<path d="M4550 1939 c0 -11 5 -17 10 -14 6 3 10 13 10 21 0 8 -4 14 -10 14 -5
0 -10 -9 -10 -21z"/>
<path d="M2833 1943 c-7 -3 -13 -9 -13 -15 0 -6 6 -6 15 2 9 7 15 8 15 2 0
-12 26 -10 37 3 4 4 2 5 -4 1 -7 -4 -13 -3 -13 2 0 9 -17 11 -37 5z"/>
<path d="M4178 1943 c6 -2 18 -2 25 0 6 3 1 5 -13 5 -14 0 -19 -2 -12 -5z"/>
<path d="M4674 1935 c-29 -9 -34 -14 -34 -32 0 -5 16 -9 35 -10 19 -1 35 3 35
8 0 5 5 9 11 9 5 0 7 -4 4 -10 -3 -5 0 -10 7 -10 22 0 18 34 -5 45 -15 7 -32
7 -53 0z"/>
<path d="M3310 1915 c7 -9 15 -13 17 -11 7 7 -7 26 -19 26 -6 0 -6 -6 2 -15z"/>
<path d="M4300 1920 c0 -5 5 -10 10 -10 6 0 10 5 10 10 0 6 -4 10 -10 10 -5 0
-10 -4 -10 -10z"/>
<path d="M1732 1909 c2 -6 8 -10 13 -10 5 0 11 4 13 10 2 6 -4 11 -13 11 -9 0
-15 -5 -13 -11z"/>
<path d="M1385 1898 c-9 -24 -2 -93 10 -93 14 0 19 85 6 98 -7 7 -12 5 -16 -5z"/>
<path d="M1347 1893 c-10 -16 -6 -343 3 -343 6 0 10 63 9 160 0 88 2 164 6
169 3 5 1 12 -4 15 -5 4 -12 3 -14 -1z"/>
<path d="M1308 1884 c-5 -4 -8 -30 -8 -58 0 -35 3 -47 11 -39 5 5 9 32 7 58
-2 26 -6 43 -10 39z"/>
<path d="M1740 1840 c0 -22 5 -40 10 -40 6 0 10 18 10 40 0 22 -4 40 -10 40
-5 0 -10 -18 -10 -40z"/>
<path d="M3166 1828 c16 -32 32 -58 36 -58 8 0 -37 89 -53 105 -6 6 2 -16 17
-47z"/>
<path d="M3216 1855 c10 -16 24 -42 32 -57 7 -16 20 -28 28 -28 17 0 1 25 -52
85 l-26 30 18 -30z"/>
<path d="M3180 1867 c0 -13 45 -96 52 -97 11 0 -10 52 -32 80 -11 14 -20 22
-20 17z"/>
<path d="M3003 1815 c0 -25 5 -45 9 -45 4 0 8 20 8 45 0 25 -4 45 -9 45 -5 0
-9 -20 -8 -45z"/>
<path d="M3056 1833 c6 -22 4 -25 -10 -20 -10 4 -16 1 -16 -8 0 -8 7 -15 15
-15 8 0 15 -4 15 -10 0 -5 3 -10 8 -10 4 0 6 20 4 45 -2 25 -8 45 -13 45 -5 0
-6 -12 -3 -27z"/>
<path d="M3106 1835 c3 -16 11 -34 16 -40 6 -6 7 1 2 20 -3 17 -11 35 -16 40
-6 6 -7 -1 -2 -20z"/>
<path d="M3140 1819 c0 -8 7 -24 16 -35 14 -18 15 -18 8 6 -8 31 -24 50 -24
29z"/>
<path d="M3090 1795 c0 -14 4 -25 9 -25 4 0 6 11 3 25 -2 14 -6 25 -8 25 -2 0
-4 -11 -4 -25z"/>
<path d="M1780 1750 c0 -39 3 -51 10 -40 5 8 10 26 10 40 0 14 -5 32 -10 40
-7 11 -10 -1 -10 -40z"/>
<path d="M1820 1764 c0 -24 4 -34 13 -31 6 2 12 9 11 15 -1 7 -2 21 -2 32 -3
35 -22 21 -22 -16z"/>
<path d="M1387 1783 c-2 -5 -5 -27 -6 -50 -1 -32 3 -43 14 -43 11 0 15 12 15
50 0 44 -11 64 -23 43z"/>
<path d="M1741 1771 c-10 -6 -10 -10 -1 -16 13 -8 24 -1 19 14 -3 6 -10 7 -18
2z"/>
<path d="M1300 1638 c0 -87 4 -128 10 -118 12 19 12 250 -1 250 -5 0 -9 -57
-9 -132z"/>
<path d="M1867 1734 c4 -10 26 -13 84 -13 46 0 77 4 74 10 -4 5 -1 9 4 9 6 0
11 -3 11 -8 0 -12 127 -15 134 -3 5 7 15 7 32 1 33 -13 114 -13 114 0 0 6 8
10 18 10 14 0 15 -2 2 -10 -13 -9 -13 -10 0 -10 26 0 60 12 60 21 0 6 -115 9
-269 8 -224 -1 -269 -3 -264 -15z"/>
<path d="M2410 1742 c0 -23 62 -29 78 -9 9 11 2 14 -33 16 -25 1 -45 -2 -45
-7z"/>
<path d="M2523 1743 c-18 -7 -16 -23 2 -23 8 0 15 4 15 9 0 5 8 12 18 14 14 4
14 5 -3 5 -11 0 -26 -2 -32 -5z"/>
<path d="M2576 1735 c-7 -18 15 -20 32 -3 9 9 15 9 23 1 12 -12 39 -7 39 7 0
15 -88 10 -94 -5z"/>
<path d="M2690 1735 c0 -9 6 -12 15 -9 8 4 15 10 15 15 0 5 -7 9 -15 9 -8 0
-15 -7 -15 -15z"/>
<path d="M2736 1734 c-5 -14 -4 -15 9 -4 17 14 19 20 6 20 -5 0 -12 -7 -15
-16z"/>
<path d="M2766 1735 c-3 -9 0 -15 9 -15 8 0 15 7 15 15 0 8 -4 15 -9 15 -5 0
-11 -7 -15 -15z"/>
<path d="M2807 1743 c-12 -11 -8 -23 8 -23 8 0 15 7 15 15 0 16 -12 20 -23 8z"/>
<path d="M2846 1734 c-4 -10 -1 -14 6 -12 15 5 23 28 10 28 -5 0 -13 -7 -16
-16z"/>
<path d="M2876 1735 c-3 -8 -1 -15 4 -15 6 0 10 7 10 15 0 8 -2 15 -4 15 -2 0
-6 -7 -10 -15z"/>
<path d="M2910 1735 c-10 -12 -10 -15 4 -15 9 0 16 7 16 15 0 8 -2 15 -4 15
-2 0 -9 -7 -16 -15z"/>
<path d="M2946 1735 c-3 -8 -1 -15 4 -15 6 0 10 7 10 15 0 8 -2 15 -4 15 -2 0
-6 -7 -10 -15z"/>
<path d="M3000 1735 c0 -8 5 -15 10 -15 6 0 10 7 10 15 0 8 -4 15 -10 15 -5 0
-10 -7 -10 -15z"/>
<path d="M3041 1734 c0 -11 3 -14 6 -6 3 7 2 16 -1 19 -3 4 -6 -2 -5 -13z"/>
<path d="M3100 1736 c0 -9 5 -16 10 -16 6 0 10 4 10 9 0 6 -4 13 -10 16 -5 3
-10 -1 -10 -9z"/>
<path d="M3136 1735 c5 -12 55 -14 51 -1 -2 5 -15 10 -29 10 -14 1 -24 -3 -22
-9z"/>
<path d="M3206 1736 c3 -9 11 -16 16 -16 13 0 5 23 -10 28 -7 2 -10 -2 -6 -12z"/>
<path d="M3246 1736 c3 -9 11 -16 16 -16 13 0 5 23 -10 28 -7 2 -10 -2 -6 -12z"/>
<path d="M3285 1740 c3 -5 11 -10 16 -10 6 0 7 5 4 10 -3 6 -11 10 -16 10 -6
0 -7 -4 -4 -10z"/>
<path d="M3325 1740 c3 -5 10 -10 16 -10 5 0 9 5 9 10 0 6 -7 10 -16 10 -8 0
-12 -4 -9 -10z"/>
<path d="M3384 1734 c9 -8 22 -13 29 -11 9 4 9 6 -1 6 -7 1 -10 6 -7 11 3 6
-3 10 -15 10 -20 0 -20 -1 -6 -16z"/>
<path d="M3440 1735 c7 -8 22 -15 34 -15 21 1 21 1 2 15 -27 21 -53 20 -36 0z"/>
<path d="M3510 1735 c7 -8 21 -15 32 -15 17 0 18 3 8 15 -7 8 -21 15 -32 15
-17 0 -18 -3 -8 -15z"/>
<path d="M3584 1735 c25 -19 32 -19 40 0 4 11 -2 15 -27 15 -30 -1 -31 -1 -13
-15z"/>
<path d="M3663 1743 c9 -2 17 -9 17 -14 0 -5 9 -9 21 -9 13 0 18 4 13 13 -5 8
-2 7 9 -2 10 -8 21 -11 24 -7 13 12 -21 26 -62 25 -22 -1 -32 -3 -22 -6z"/>
<path d="M3778 1743 c12 -2 22 -9 22 -14 0 -5 20 -8 45 -7 39 3 43 5 28 16 -9
6 -40 11 -67 11 -28 -1 -41 -4 -28 -6z"/>
<path d="M3923 1743 c15 -2 27 -9 27 -14 0 -5 11 -9 25 -9 14 0 25 5 25 10 0
6 10 10 23 10 18 0 19 -2 7 -10 -12 -8 -10 -10 8 -10 15 0 22 5 20 13 -3 8
-30 12 -84 13 -43 1 -67 -1 -51 -3z"/>
<path d="M1742 1710 c3 -17 1 -33 -3 -35 -4 -3 -5 -13 -3 -23 5 -15 21 -17
150 -18 79 -1 144 2 144 6 0 13 -33 16 -147 14 -67 -2 -115 1 -119 7 -3 6 -6
26 -6 45 0 19 -5 34 -10 34 -6 0 -8 -14 -6 -30z"/>
<path d="M1790 1690 c-16 -10 -6 -12 75 -12 87 0 106 2 100 12 -8 13 -155 13
-175 0z"/>
<path d="M1980 1686 c0 -11 13 -13 58 -9 66 5 75 5 122 0 19 -2 47 0 61 4 14
4 57 3 95 -1 38 -4 74 -4 79 1 6 4 34 5 62 2 30 -3 53 -1 57 5 4 7 -80 11
-264 11 -223 0 -270 -2 -270 -13z"/>
<path d="M2543 1693 c-7 -2 -13 -8 -13 -13 0 -10 38 -1 46 11 6 10 -13 11 -33
2z"/>
<path d="M2597 1693 c-4 -3 -7 -11 -7 -17 0 -6 5 -5 12 2 6 6 9 14 7 17 -3 3
-9 2 -12 -2z"/>
<path d="M2650 1690 c0 -5 4 -10 9 -10 6 0 13 5 16 10 3 6 -1 10 -9 10 -9 0
-16 -4 -16 -10z"/>
<path d="M2700 1690 c0 -5 4 -10 9 -10 6 0 13 5 16 10 3 6 -1 10 -9 10 -9 0
-16 -4 -16 -10z"/>
<path d="M2750 1690 c0 -5 4 -10 9 -10 6 0 13 5 16 10 3 6 -1 10 -9 10 -9 0
-16 -4 -16 -10z"/>
<path d="M2795 1690 c-3 -4 7 -7 20 -7 14 0 27 3 30 7 3 4 -7 8 -20 8 -14 0
-27 -4 -30 -8z"/>
<path d="M2860 1690 c0 -5 7 -10 15 -10 8 0 15 5 15 10 0 6 -7 10 -15 10 -8 0
-15 -4 -15 -10z"/>
<path d="M2900 1690 c0 -5 7 -10 16 -10 8 0 12 5 9 10 -3 6 -10 10 -16 10 -5
0 -9 -4 -9 -10z"/>
<path d="M2940 1690 c0 -5 5 -10 10 -10 6 0 10 5 10 10 0 6 -4 10 -10 10 -5 0
-10 -4 -10 -10z"/>
<path d="M3002 1691 c2 -7 7 -12 11 -12 12 1 9 15 -3 20 -7 2 -11 -2 -8 -8z"/>
<path d="M3040 1688 c0 -4 18 -8 40 -8 52 0 52 15 0 16 -22 0 -40 -3 -40 -8z"/>
<path d="M3145 1690 c3 -5 11 -10 16 -10 6 0 7 5 4 10 -3 6 -11 10 -16 10 -6
0 -7 -4 -4 -10z"/>
<path d="M3185 1690 c3 -5 10 -10 16 -10 5 0 9 5 9 10 0 6 -7 10 -16 10 -8 0
-12 -4 -9 -10z"/>
<path d="M3222 1694 c10 -10 58 -12 64 -3 3 5 -12 9 -32 9 -21 0 -35 -3 -32
-6z"/>
<path d="M3315 1690 c3 -5 10 -10 16 -10 5 0 9 5 9 10 0 6 -7 10 -16 10 -8 0
-12 -4 -9 -10z"/>
<path d="M3372 1691 c2 -7 7 -12 11 -12 12 1 9 15 -3 20 -7 2 -11 -2 -8 -8z"/>
<path d="M3425 1690 c3 -5 13 -10 21 -10 8 0 12 5 9 10 -3 6 -13 10 -21 10 -8
0 -12 -4 -9 -10z"/>
<path d="M3485 1690 c3 -5 15 -10 26 -10 11 0 17 5 14 10 -3 6 -15 10 -26 10
-11 0 -17 -4 -14 -10z"/>
<path d="M3560 1690 c20 -13 53 -13 45 0 -3 6 -18 10 -33 10 -21 0 -24 -2 -12
-10z"/>
<path d="M3645 1690 c3 -5 17 -10 31 -10 13 0 24 5 24 10 0 6 -14 10 -31 10
-17 0 -28 -4 -24 -10z"/>
<path d="M3735 1692 c14 -15 40 -19 43 -7 1 6 -10 11 -25 13 -19 2 -25 0 -18
-6z"/>
<path d="M3800 1689 c0 -4 19 -8 43 -7 23 0 51 -1 61 -3 10 -2 21 2 23 9 4 10
-10 13 -61 11 -36 -1 -66 -6 -66 -10z"/>
<path d="M3945 1690 c3 -5 15 -10 26 -10 10 0 19 5 19 10 0 6 -12 10 -26 10
-14 0 -23 -4 -19 -10z"/>
<path d="M4010 1690 c0 -5 22 -10 49 -10 28 0 53 5 56 10 4 6 -15 10 -49 10
-31 0 -56 -4 -56 -10z"/>
<path d="M4130 1690 c0 -5 9 -10 20 -10 11 0 20 5 20 10 0 6 -9 10 -20 10 -11
0 -20 -4 -20 -10z"/>
<path d="M4207 1693 c-3 -5 11 -9 31 -10 21 0 55 -2 76 -3 21 -1 44 4 49 9 8
8 -13 11 -70 11 -45 0 -84 -3 -86 -7z"/>
<path d="M1387 1673 c-2 -4 -5 -61 -5 -126 0 -86 3 -117 11 -114 15 5 23 225
9 239 -5 5 -12 6 -15 1z"/>
<path d="M2080 1650 c-85 -10 5 -19 145 -15 72 2 141 4 154 4 13 1 22 4 19 7
-8 7 -260 11 -318 4z"/>
<path d="M2420 1645 c-14 -16 -8 -18 28 -8 18 4 20 8 10 14 -18 12 -24 11 -38
-6z"/>
<path d="M2497 1653 c-14 -14 -6 -20 19 -15 19 3 22 7 12 13 -16 11 -23 11
-31 2z"/>
<path d="M2815 1650 c-3 -5 1 -10 10 -10 9 0 13 5 10 10 -3 6 -8 10 -10 10 -2
0 -7 -4 -10 -10z"/>
<path d="M2855 1650 c-3 -5 1 -10 10 -10 9 0 13 5 10 10 -3 6 -8 10 -10 10 -2
0 -7 -4 -10 -10z"/>
<path d="M3006 1651 c-4 -5 -2 -12 3 -15 5 -4 12 -2 15 3 4 5 2 12 -3 15 -5 4
-12 2 -15 -3z"/>
<path d="M3042 1651 c4 -13 18 -16 19 -4 0 4 -5 9 -11 12 -7 2 -11 -2 -8 -8z"/>
<path d="M3084 1651 c-2 -2 -2 -7 1 -10 5 -8 85 -1 85 8 0 6 -79 9 -86 2z"/>
<path d="M3200 1651 c0 -5 5 -13 10 -16 6 -3 10 -2 10 4 0 5 -4 13 -10 16 -5
3 -10 2 -10 -4z"/>
<path d="M3370 1649 c-37 -7 -35 -8 18 -13 17 -2 32 0 32 5 0 13 -13 15 -50 8z"/>
<path d="M3445 1650 c-18 -8 -17 -9 8 -9 16 -1 26 3 22 9 -3 6 -7 10 -8 9 -1
0 -11 -4 -22 -9z"/>
<path d="M3685 1650 c-3 -5 -1 -10 4 -10 6 0 11 5 11 10 0 6 -2 10 -4 10 -3 0
-8 -4 -11 -10z"/>
<path d="M3800 1652 c0 -11 49 -26 58 -17 8 7 0 12 -31 20 -16 4 -27 3 -27 -3z"/>
<path d="M4119 1650 c-20 -5 -17 -7 18 -13 23 -4 52 -3 65 2 20 7 18 9 -18 12
-23 3 -52 2 -65 -1z"/>
<path d="M4290 1649 c-63 -7 -45 -9 126 -13 67 -2 137 0 155 4 29 7 31 8 9 10
-66 5 -241 4 -290 -1z"/>
<path d="M2560 1640 c0 -5 6 -10 14 -10 8 0 18 5 21 10 3 6 -3 10 -14 10 -12
0 -21 -4 -21 -10z"/>
<path d="M2625 1640 c3 -5 10 -10 16 -10 5 0 9 5 9 10 0 6 -7 10 -16 10 -8 0
-12 -4 -9 -10z"/>
<path d="M2768 1643 c7 -3 16 -2 19 1 4 3 -2 6 -13 5 -11 0 -14 -3 -6 -6z"/>
<path d="M2891 1646 c8 -8 88 -10 95 -3 4 4 -17 7 -46 7 -29 0 -51 -2 -49 -4z"/>
<path d="M3250 1640 c0 -5 5 -10 10 -10 6 0 10 5 10 10 0 6 -4 10 -10 10 -5 0
-10 -4 -10 -10z"/>
<path d="M3300 1640 c0 -5 5 -10 10 -10 6 0 10 5 10 10 0 6 -4 10 -10 10 -5 0
-10 -4 -10 -10z"/>
<path d="M3535 1640 c3 -5 10 -10 16 -10 5 0 9 5 9 10 0 6 -7 10 -16 10 -8 0
-12 -4 -9 -10z"/>
<path d="M3574 1642 c5 -9 86 -6 94 3 3 3 -18 5 -47 5 -29 0 -50 -4 -47 -8z"/>
<path d="M3717 1639 c8 -8 19 -8 40 -1 28 10 28 10 -11 11 -29 1 -37 -2 -29
-10z"/>
<path d="M3883 1643 c9 -2 23 -2 30 0 6 3 -1 5 -18 5 -16 0 -22 -2 -12 -5z"/>
<path d="M3958 1638 c17 -8 26 -8 34 0 9 9 4 12 -22 11 -33 0 -34 -1 -12 -11z"/>
<path d="M4010 1641 c0 -4 11 -6 25 -3 14 2 25 6 25 8 0 2 -11 4 -25 4 -14 0
-25 -4 -25 -9z"/>
<path d="M1340 1465 c0 -37 4 -65 10 -65 6 0 10 28 10 65 0 37 -4 65 -10 65
-6 0 -10 -28 -10 -65z"/>
<path d="M1303 1416 c6 -90 30 -167 47 -150 7 7 5 22 -7 44 -9 20 -18 68 -21
112 -3 43 -9 78 -15 78 -6 0 -8 -30 -4 -84z"/>
<path d="M1340 1371 c0 -6 4 -12 9 -15 4 -3 11 -19 14 -36 4 -18 13 -30 23
-30 8 0 14 3 12 8 -2 4 -10 24 -18 45 -12 33 -40 52 -40 28z"/>
<path d="M4057 703 c-10 -9 -9 -23 1 -23 5 0 9 7 9 15 0 17 -1 18 -10 8z"/>
<path d="M4215 700 c3 -5 8 -10 11 -10 2 0 4 5 4 10 0 6 -5 10 -11 10 -5 0 -7
-4 -4 -10z"/>
<path d="M4340 668 c0 -15 5 -19 20 -15 11 3 20 1 20 -4 0 -5 -8 -9 -17 -10
-15 0 -15 -2 2 -9 11 -5 14 -9 6 -9 -7 -1 -11 -7 -8 -15 4 -10 -2 -16 -16 -19
-17 -3 -16 -5 7 -6 21 -1 27 3 22 14 -3 10 1 15 12 15 10 0 30 14 45 32 33 37
25 46 -45 46 -42 1 -48 -2 -48 -20z m80 -32 c0 -2 -7 -6 -15 -10 -8 -3 -15 -1
-15 4 0 6 7 10 15 10 8 0 15 -2 15 -4z"/>
<path d="M3781 642 c-8 -11 -21 -17 -31 -15 -10 3 -20 -2 -23 -12 -7 -17 28
-36 66 -34 21 0 21 1 2 8 -16 7 -17 9 -5 12 11 3 14 12 10 32 -5 27 -6 27 -19
9z"/>
<path d="M1717 703 c-4 -3 -7 -11 -7 -17 0 -6 4 -5 9 3 8 12 13 12 24 3 12
-10 16 -9 21 3 4 11 -1 15 -18 15 -12 0 -26 -3 -29 -7z"/>
<path d="M1897 703 c-8 -14 7 -38 26 -41 19 -3 23 14 5 21 -10 4 -10 6 0 6 7
1 10 6 7 11 -7 12 -32 13 -38 3z"/>
<path d="M2050 680 c0 -5 5 -10 11 -10 5 0 7 5 4 10 -3 6 -8 10 -11 10 -2 0
-4 -4 -4 -10z"/>
<path d="M2170 632 c0 -19 5 -32 13 -33 6 0 3 -4 -8 -9 l-20 -9 20 0 c38 -1
65 11 65 29 0 12 -6 17 -17 16 -10 -2 -26 6 -35 17 -18 20 -18 20 -18 -11z"/>
</g>
</svg>
